<?xml version="1.0" encoding="UTF-8" standalone="no"?>
<!DOCTYPE svg PUBLIC "-//W3C//DTD SVG 1.1//EN"
 "http://www.w3.org/Graphics/SVG/1.1/DTD/svg11.dtd">
<!-- Generated by graphviz version 2.40.1 (20161225.0304)
 -->
<!-- Title: workflow Pages: 1 -->
<svg width="836pt" height="506pt"
 viewBox="0.00 0.00 836.00 506.00" xmlns="http://www.w3.org/2000/svg" xmlns:xlink="http://www.w3.org/1999/xlink">
<g id="graph0" class="graph" transform="scale(1 1) rotate(0) translate(4 502)">
<title>workflow</title>
<polygon fill="#ffffff" stroke="transparent" points="-4,4 -4,-502 832,-502 832,4 -4,4"/>
<!-- place_fcc537881cd1d5bcddabf48fa8809c7471176de0 -->
<g id="node1" class="node">
<title>place_fcc537881cd1d5bcddabf48fa8809c7471176de0</title>
<ellipse fill="#add8e6" stroke="#333333" cx="36" cy="-102" rx="36" ry="36"/>
<text text-anchor="middle" x="36" y="-99.8" font-family="Arial" font-size="9.00" fill="#000000">inside</text>
</g>
<!-- transition_511bd3eb8a85954f966f49773dbfef76b833160a -->
<g id="node5" class="node">
<title>transition_511bd3eb8a85954f966f49773dbfef76b833160a</title>
<polygon fill="none" stroke="#333333" points="180,-285 108,-285 108,-213 180,-213 180,-285"/>
<text text-anchor="middle" x="144" y="-246.8" font-family="Arial" font-size="9.00" fill="#000000">rent</text>
</g>
<!-- place_fcc537881cd1d5bcddabf48fa8809c7471176de0&#45;&gt;transition_511bd3eb8a85954f966f49773dbfef76b833160a -->
<g id="edge1" class="edge">
<title>place_fcc537881cd1d5bcddabf48fa8809c7471176de0&#45;&gt;transition_511bd3eb8a85954f966f49773dbfef76b833160a</title>
<path fill="none" stroke="#333333" d="M57.3373,-131.0425C73.6667,-153.2686 96.3791,-184.1827 114.456,-208.7873"/>
<polygon fill="#333333" stroke="#333333" points="113.1739,-209.998 117.5446,-212.9912 115.9945,-207.9257 113.1739,-209.998"/>
</g>
<!-- transition_b955334da39e8790cf535290ff47f5c90f74ef40 -->
<g id="node6" class="node">
<title>transition_b955334da39e8790cf535290ff47f5c90f74ef40</title>
<polygon fill="none" stroke="#333333" points="180,-138 108,-138 108,-66 180,-66 180,-138"/>
<text text-anchor="middle" x="144" y="-99.8" font-family="Arial" font-size="9.00" fill="#000000">inside_reserv</text>
</g>
<!-- place_fcc537881cd1d5bcddabf48fa8809c7471176de0&#45;&gt;transition_b955334da39e8790cf535290ff47f5c90f74ef40 -->
<g id="edge3" class="edge">
<title>place_fcc537881cd1d5bcddabf48fa8809c7471176de0&#45;&gt;transition_b955334da39e8790cf535290ff47f5c90f74ef40</title>
<path fill="none" stroke="#333333" d="M71.6626,-95.6085C81.4989,-95.2095 92.2565,-95.1436 102.3974,-95.4107"/>
<polygon fill="#333333" stroke="#333333" points="102.5819,-97.1675 107.6361,-95.5807 102.6955,-93.6693 102.5819,-97.1675"/>
</g>
<!-- place_45e18dad51fd9e8869897fba48fa93d118e5e404 -->
<g id="node2" class="node">
<title>place_45e18dad51fd9e8869897fba48fa93d118e5e404</title>
<ellipse fill="none" stroke="#333333" cx="252" cy="-268" rx="36" ry="36"/>
<text text-anchor="middle" x="252" y="-265.8" font-family="Arial" font-size="9.00" fill="#000000">outside</text>
</g>
<!-- transition_6d2479d1ab88667b98ca6024846fed6207bb10f2 -->
<g id="node7" class="node">
<title>transition_6d2479d1ab88667b98ca6024846fed6207bb10f2</title>
<polygon fill="none" stroke="#333333" points="396,-304 324,-304 324,-232 396,-232 396,-304"/>
<text text-anchor="middle" x="360" y="-265.8" font-family="Arial" font-size="9.00" fill="#000000">rent_reserv</text>
</g>
<!-- place_45e18dad51fd9e8869897fba48fa93d118e5e404&#45;&gt;transition_6d2479d1ab88667b98ca6024846fed6207bb10f2 -->
<g id="edge6" class="edge">
<title>place_45e18dad51fd9e8869897fba48fa93d118e5e404&#45;&gt;transition_6d2479d1ab88667b98ca6024846fed6207bb10f2</title>
<path fill="none" stroke="#333333" d="M287.6626,-261.6085C297.4989,-261.2095 308.2565,-261.1436 318.3974,-261.4107"/>
<polygon fill="#333333" stroke="#333333" points="318.5819,-263.1675 323.6361,-261.5807 318.6955,-259.6693 318.5819,-263.1675"/>
</g>
<!-- transition_63143b6f8007b98c53ca2149822777b3566f9241 -->
<g id="node8" class="node">
<title>transition_63143b6f8007b98c53ca2149822777b3566f9241</title>
<polygon fill="none" stroke="#333333" points="396,-176 324,-176 324,-104 396,-104 396,-176"/>
<text text-anchor="middle" x="360" y="-137.8" font-family="Arial" font-size="9.00" fill="#000000">return</text>
</g>
<!-- place_45e18dad51fd9e8869897fba48fa93d118e5e404&#45;&gt;transition_63143b6f8007b98c53ca2149822777b3566f9241 -->
<g id="edge9" class="edge">
<title>place_45e18dad51fd9e8869897fba48fa93d118e5e404&#45;&gt;transition_63143b6f8007b98c53ca2149822777b3566f9241</title>
<path fill="none" stroke="#333333" d="M275.4344,-240.2259C290.2073,-222.7173 309.5309,-199.8152 325.9768,-180.3238"/>
<polygon fill="#333333" stroke="#333333" points="327.3385,-181.4236 329.2254,-176.4736 324.6635,-179.1665 327.3385,-181.4236"/>
</g>
<!-- transition_ba0183f387c29c2eef3c45a3c6d37458041d349a -->
<g id="node9" class="node">
<title>transition_ba0183f387c29c2eef3c45a3c6d37458041d349a</title>
<polygon fill="none" stroke="#333333" points="612,-245 540,-245 540,-173 612,-173 612,-245"/>
<text text-anchor="middle" x="576" y="-206.8" font-family="Arial" font-size="9.00" fill="#000000">return_reserv</text>
</g>
<!-- place_45e18dad51fd9e8869897fba48fa93d118e5e404&#45;&gt;transition_ba0183f387c29c2eef3c45a3c6d37458041d349a -->
<g id="edge11" class="edge">
<title>place_45e18dad51fd9e8869897fba48fa93d118e5e404&#45;&gt;transition_ba0183f387c29c2eef3c45a3c6d37458041d349a</title>
<path fill="none" stroke="#333333" d="M280.4619,-245.5673C293.0767,-236.8984 308.5437,-227.9008 324,-223 395.4749,-200.337 483.9949,-201.7166 534.8357,-205.1226"/>
<polygon fill="#333333" stroke="#333333" points="534.8282,-206.8763 539.9383,-205.4799 535.0727,-203.3849 534.8282,-206.8763"/>
</g>
<!-- transition_64916df45cb60700aa70869c92c0cdae8cc044f9 -->
<g id="node10" class="node">
<title>transition_64916df45cb60700aa70869c92c0cdae8cc044f9</title>
<polygon fill="none" stroke="#333333" points="504,-432 432,-432 432,-360 504,-360 504,-432"/>
<text text-anchor="middle" x="468" y="-393.8" font-family="Arial" font-size="9.00" fill="#000000">return_ko</text>
</g>
<!-- place_45e18dad51fd9e8869897fba48fa93d118e5e404&#45;&gt;transition_64916df45cb60700aa70869c92c0cdae8cc044f9 -->
<g id="edge15" class="edge">
<title>place_45e18dad51fd9e8869897fba48fa93d118e5e404&#45;&gt;transition_64916df45cb60700aa70869c92c0cdae8cc044f9</title>
<path fill="none" stroke="#333333" d="M273.1994,-297.3076C286.2659,-313.5768 304.2659,-333.0768 324,-346 355.4976,-366.6267 396.4602,-379.7695 426.6398,-387.3762"/>
<polygon fill="#333333" stroke="#333333" points="426.4916,-389.1421 431.7653,-388.6412 427.3303,-385.7441 426.4916,-389.1421"/>
</g>
<!-- transition_34cc435274f0a4cbcb02210f7b094dc31ae3347e -->
<g id="node11" class="node">
<title>transition_34cc435274f0a4cbcb02210f7b094dc31ae3347e</title>
<polygon fill="none" stroke="#333333" points="612,-354 540,-354 540,-282 612,-282 612,-354"/>
<text text-anchor="middle" x="576" y="-315.8" font-family="Arial" font-size="9.00" fill="#000000">return_res_ko</text>
</g>
<!-- place_45e18dad51fd9e8869897fba48fa93d118e5e404&#45;&gt;transition_34cc435274f0a4cbcb02210f7b094dc31ae3347e -->
<g id="edge17" class="edge">
<title>place_45e18dad51fd9e8869897fba48fa93d118e5e404&#45;&gt;transition_34cc435274f0a4cbcb02210f7b094dc31ae3347e</title>
<path fill="none" stroke="#333333" d="M280.3791,-290.7024C292.9798,-299.4168 308.4588,-308.3755 324,-313 395.5683,-334.296 483.6918,-329.4234 534.5024,-323.8062"/>
<polygon fill="#333333" stroke="#333333" points="534.8331,-325.5299 539.6032,-323.2258 534.4374,-322.0524 534.8331,-325.5299"/>
</g>
<!-- transition_dab4cfbed01e8b738e2e10a5b83ef03d3f1753ca -->
<g id="node12" class="node">
<title>transition_dab4cfbed01e8b738e2e10a5b83ef03d3f1753ca</title>
<polygon fill="none" stroke="#333333" points="612,-496 540,-496 540,-424 612,-424 612,-496"/>
<text text-anchor="middle" x="576" y="-457.8" font-family="Arial" font-size="9.00" fill="#000000">ret_no_res_ins</text>
</g>
<!-- place_45e18dad51fd9e8869897fba48fa93d118e5e404&#45;&gt;transition_dab4cfbed01e8b738e2e10a5b83ef03d3f1753ca -->
<g id="edge20" class="edge">
<title>place_45e18dad51fd9e8869897fba48fa93d118e5e404&#45;&gt;transition_dab4cfbed01e8b738e2e10a5b83ef03d3f1753ca</title>
<path fill="none" stroke="#333333" d="M268.6221,-300.518C281.5113,-323.5233 301.0192,-354.0577 324,-376 364.5191,-414.6882 379.1188,-422.5029 432,-441 465.2757,-452.6393 505.1511,-457.2325 534.495,-459.0042"/>
<polygon fill="#333333" stroke="#333333" points="534.7577,-460.7715 539.8476,-459.3032 534.953,-457.2769 534.7577,-460.7715"/>
</g>
<!-- place_c3fed1dae28105416889eb25d33d7d24c7a20450 -->
<g id="node3" class="node">
<title>place_c3fed1dae28105416889eb25d33d7d24c7a20450</title>
<ellipse fill="none" stroke="#333333" cx="468" cy="-268" rx="36" ry="36"/>
<text text-anchor="middle" x="468" y="-265.8" font-family="Arial" font-size="9.00" fill="#000000">reserved</text>
</g>
<!-- place_c3fed1dae28105416889eb25d33d7d24c7a20450&#45;&gt;transition_ba0183f387c29c2eef3c45a3c6d37458041d349a -->
<g id="edge12" class="edge">
<title>place_c3fed1dae28105416889eb25d33d7d24c7a20450&#45;&gt;transition_ba0183f387c29c2eef3c45a3c6d37458041d349a</title>
<path fill="none" stroke="#333333" d="M496.942,-246.1316C508.6281,-239.0523 522.3261,-231.3974 535.0065,-224.8217"/>
<polygon fill="#333333" stroke="#333333" points="535.9771,-226.2907 539.6267,-222.451 534.3792,-223.1767 535.9771,-226.2907"/>
</g>
<!-- place_c3fed1dae28105416889eb25d33d7d24c7a20450&#45;&gt;transition_34cc435274f0a4cbcb02210f7b094dc31ae3347e -->
<g id="edge18" class="edge">
<title>place_c3fed1dae28105416889eb25d33d7d24c7a20450&#45;&gt;transition_34cc435274f0a4cbcb02210f7b094dc31ae3347e</title>
<path fill="none" stroke="#333333" d="M500.6966,-283.1373C511.4528,-288.117 523.5518,-293.7184 534.8535,-298.9507"/>
<polygon fill="#333333" stroke="#333333" points="534.3694,-300.655 539.6419,-301.1676 535.8398,-297.4788 534.3694,-300.655"/>
</g>
<!-- place_c3fed1dae28105416889eb25d33d7d24c7a20450&#45;&gt;transition_dab4cfbed01e8b738e2e10a5b83ef03d3f1753ca -->
<g id="edge21" class="edge">
<title>place_c3fed1dae28105416889eb25d33d7d24c7a20450&#45;&gt;transition_dab4cfbed01e8b738e2e10a5b83ef03d3f1753ca</title>
<path fill="none" stroke="#333333" d="M485.834,-299.7049C504.2394,-332.4257 533.0191,-383.5895 553.0974,-419.2842"/>
<polygon fill="#333333" stroke="#333333" points="551.7708,-420.4955 555.7474,-423.9954 554.8213,-418.7796 551.7708,-420.4955"/>
</g>
<!-- place_eeef42f87513f6dcbf91d0d8184c61215456de34 -->
<g id="node4" class="node">
<title>place_eeef42f87513f6dcbf91d0d8184c61215456de34</title>
<ellipse fill="none" stroke="#333333" cx="684" cy="-318" rx="36" ry="36"/>
<text text-anchor="middle" x="684" y="-315.8" font-family="Arial" font-size="9.00" fill="#000000">not_available</text>
</g>
<!-- transition_17a3a24e36c48891e8b53e893381d9778acd9114 -->
<g id="node13" class="node">
<title>transition_17a3a24e36c48891e8b53e893381d9778acd9114</title>
<polygon fill="none" stroke="#333333" points="828,-202 756,-202 756,-130 828,-130 828,-202"/>
<text text-anchor="middle" x="792" y="-163.8" font-family="Arial" font-size="9.00" fill="#000000">repaired</text>
</g>
<!-- place_eeef42f87513f6dcbf91d0d8184c61215456de34&#45;&gt;transition_17a3a24e36c48891e8b53e893381d9778acd9114 -->
<g id="edge23" class="edge">
<title>place_eeef42f87513f6dcbf91d0d8184c61215456de34&#45;&gt;transition_17a3a24e36c48891e8b53e893381d9778acd9114</title>
<path fill="none" stroke="#333333" d="M705.0799,-288.332C721.7449,-264.8775 745.1743,-231.9029 763.5094,-206.0978"/>
<polygon fill="#333333" stroke="#333333" points="764.9371,-207.1099 766.4066,-202.0204 762.0839,-205.0827 764.9371,-207.1099"/>
</g>
<!-- transition_511bd3eb8a85954f966f49773dbfef76b833160a&#45;&gt;place_45e18dad51fd9e8869897fba48fa93d118e5e404 -->
<g id="edge2" class="edge">
<title>transition_511bd3eb8a85954f966f49773dbfef76b833160a&#45;&gt;place_45e18dad51fd9e8869897fba48fa93d118e5e404</title>
<path fill="none" stroke="#333333" d="M180.2629,-255.3796C190.2687,-257.1399 201.1885,-259.0609 211.4217,-260.8612"/>
<polygon fill="#333333" stroke="#333333" points="211.1555,-262.5912 216.3831,-261.7341 211.7619,-259.1441 211.1555,-262.5912"/>
</g>
<!-- transition_b955334da39e8790cf535290ff47f5c90f74ef40&#45;&gt;place_fcc537881cd1d5bcddabf48fa8809c7471176de0 -->
<g id="edge4" class="edge">
<title>transition_b955334da39e8790cf535290ff47f5c90f74ef40&#45;&gt;place_fcc537881cd1d5bcddabf48fa8809c7471176de0</title>
<path fill="none" stroke="#333333" d="M107.6361,-108.4193C97.7569,-108.8025 86.993,-108.8527 76.8822,-108.5698"/>
<polygon fill="#333333" stroke="#333333" points="76.7194,-106.8133 71.6626,-108.3915 76.5999,-110.3112 76.7194,-106.8133"/>
</g>
<!-- transition_b955334da39e8790cf535290ff47f5c90f74ef40&#45;&gt;place_c3fed1dae28105416889eb25d33d7d24c7a20450 -->
<g id="edge5" class="edge">
<title>transition_b955334da39e8790cf535290ff47f5c90f74ef40&#45;&gt;place_c3fed1dae28105416889eb25d33d7d24c7a20450</title>
<path fill="none" stroke="#333333" d="M180.1136,-88.9576C232.5005,-72.5061 330.4597,-51.2871 396,-95 439.7334,-124.1686 456.9435,-185.4413 463.6894,-226.6681"/>
<polygon fill="#333333" stroke="#333333" points="461.9972,-227.1742 464.4988,-231.8438 465.4552,-226.6334 461.9972,-227.1742"/>
</g>
<!-- transition_6d2479d1ab88667b98ca6024846fed6207bb10f2&#45;&gt;place_45e18dad51fd9e8869897fba48fa93d118e5e404 -->
<g id="edge7" class="edge">
<title>transition_6d2479d1ab88667b98ca6024846fed6207bb10f2&#45;&gt;place_45e18dad51fd9e8869897fba48fa93d118e5e404</title>
<path fill="none" stroke="#333333" d="M323.6361,-274.4193C313.7569,-274.8025 302.993,-274.8527 292.8822,-274.5698"/>
<polygon fill="#333333" stroke="#333333" points="292.7194,-272.8133 287.6626,-274.3915 292.5999,-276.3112 292.7194,-272.8133"/>
</g>
<!-- transition_6d2479d1ab88667b98ca6024846fed6207bb10f2&#45;&gt;place_c3fed1dae28105416889eb25d33d7d24c7a20450 -->
<g id="edge8" class="edge">
<title>transition_6d2479d1ab88667b98ca6024846fed6207bb10f2&#45;&gt;place_c3fed1dae28105416889eb25d33d7d24c7a20450</title>
<path fill="none" stroke="#333333" d="M396.2629,-268C405.969,-268 416.5352,-268 426.5004,-268"/>
<polygon fill="#333333" stroke="#333333" points="426.649,-269.7501 431.649,-268 426.649,-266.2501 426.649,-269.7501"/>
</g>
<!-- transition_63143b6f8007b98c53ca2149822777b3566f9241&#45;&gt;place_fcc537881cd1d5bcddabf48fa8809c7471176de0 -->
<g id="edge10" class="edge">
<title>transition_63143b6f8007b98c53ca2149822777b3566f9241&#45;&gt;place_fcc537881cd1d5bcddabf48fa8809c7471176de0</title>
<path fill="none" stroke="#333333" d="M323.6694,-147.7673C273.9064,-156.8994 182.2551,-168.2961 108,-147 94.1184,-143.0188 80.317,-135.4944 68.5674,-127.7218"/>
<polygon fill="#333333" stroke="#333333" points="69.4558,-126.2098 64.335,-124.853 67.492,-129.107 69.4558,-126.2098"/>
</g>
<!-- transition_ba0183f387c29c2eef3c45a3c6d37458041d349a&#45;&gt;place_fcc537881cd1d5bcddabf48fa8809c7471176de0 -->
<g id="edge13" class="edge">
<title>transition_ba0183f387c29c2eef3c45a3c6d37458041d349a&#45;&gt;place_fcc537881cd1d5bcddabf48fa8809c7471176de0</title>
<path fill="none" stroke="#333333" d="M552.955,-172.7353C517.9042,-122.5398 446.0919,-38 360,-38 252,-38 252,-38 252,-38 187.4453,-38 168.7532,-35.1743 108,-57 94.4092,-61.8825 80.676,-69.6184 68.8998,-77.3086"/>
<polygon fill="#333333" stroke="#333333" points="67.8466,-75.9074 64.6537,-80.1345 69.7857,-78.8212 67.8466,-75.9074"/>
</g>
<!-- transition_ba0183f387c29c2eef3c45a3c6d37458041d349a&#45;&gt;place_c3fed1dae28105416889eb25d33d7d24c7a20450 -->
<g id="edge14" class="edge">
<title>transition_ba0183f387c29c2eef3c45a3c6d37458041d349a&#45;&gt;place_c3fed1dae28105416889eb25d33d7d24c7a20450</title>
<path fill="none" stroke="#333333" d="M539.6255,-235.291C528.9502,-241.5367 517.2427,-247.9574 506.4428,-253.4934"/>
<polygon fill="#333333" stroke="#333333" points="505.544,-251.987 501.8756,-255.8087 507.1266,-255.1088 505.544,-251.987"/>
</g>
<!-- transition_64916df45cb60700aa70869c92c0cdae8cc044f9&#45;&gt;place_eeef42f87513f6dcbf91d0d8184c61215456de34 -->
<g id="edge16" class="edge">
<title>transition_64916df45cb60700aa70869c92c0cdae8cc044f9&#45;&gt;place_eeef42f87513f6dcbf91d0d8184c61215456de34</title>
<path fill="none" stroke="#333333" d="M504.2305,-391.1262C533.9835,-386.3228 576.8008,-377.5486 612,-363 625.2248,-357.5339 638.7733,-349.7424 650.4982,-342.1751"/>
<polygon fill="#333333" stroke="#333333" points="651.5079,-343.6058 654.7315,-339.402 649.59,-340.678 651.5079,-343.6058"/>
</g>
<!-- transition_34cc435274f0a4cbcb02210f7b094dc31ae3347e&#45;&gt;place_eeef42f87513f6dcbf91d0d8184c61215456de34 -->
<g id="edge19" class="edge">
<title>transition_34cc435274f0a4cbcb02210f7b094dc31ae3347e&#45;&gt;place_eeef42f87513f6dcbf91d0d8184c61215456de34</title>
<path fill="none" stroke="#333333" d="M612.2629,-318C621.969,-318 632.5352,-318 642.5004,-318"/>
<polygon fill="#333333" stroke="#333333" points="642.649,-319.7501 647.649,-318 642.649,-316.2501 642.649,-319.7501"/>
</g>
<!-- transition_dab4cfbed01e8b738e2e10a5b83ef03d3f1753ca&#45;&gt;place_fcc537881cd1d5bcddabf48fa8809c7471176de0 -->
<g id="edge22" class="edge">
<title>transition_dab4cfbed01e8b738e2e10a5b83ef03d3f1753ca&#45;&gt;place_fcc537881cd1d5bcddabf48fa8809c7471176de0</title>
<path fill="none" stroke="#333333" d="M539.653,-470.3837C497.0011,-481.6348 423.9675,-498 360,-498 252,-498 252,-498 252,-498 91.6222,-498 49.6096,-244.578 39.2191,-143.1948"/>
<polygon fill="#333333" stroke="#333333" points="40.9578,-142.9935 38.7195,-138.1921 37.4751,-143.3413 40.9578,-142.9935"/>
</g>
<!-- transition_17a3a24e36c48891e8b53e893381d9778acd9114&#45;&gt;place_fcc537881cd1d5bcddabf48fa8809c7471176de0 -->
<g id="edge24" class="edge">
<title>transition_17a3a24e36c48891e8b53e893381d9778acd9114&#45;&gt;place_fcc537881cd1d5bcddabf48fa8809c7471176de0</title>
<path fill="none" stroke="#333333" d="M768.1081,-129.9805C732.5309,-81.1585 660.6579,0 576,0 252,0 252,0 252,0 186.0303,0 166.0994,-4.7516 108,-36 91.4885,-44.8806 75.8094,-58.401 63.3234,-70.8971"/>
<polygon fill="#333333" stroke="#333333" points="61.8083,-69.9423 59.5536,-74.736 64.3056,-72.3947 61.8083,-69.9423"/>
</g>
</g>
</svg>
