<?xml version="1.0" encoding="UTF-8" standalone="no"?>
<!DOCTYPE svg PUBLIC "-//W3C//DTD SVG 1.1//EN"
 "http://www.w3.org/Graphics/SVG/1.1/DTD/svg11.dtd">
<!-- Generated by graphviz version 2.38.0 (20140413.2041)
 -->
<!-- Title: workflow Pages: 1 -->
<svg width="728pt" height="260pt"
 viewBox="0.00 0.00 728.00 260.00" xmlns="http://www.w3.org/2000/svg" xmlns:xlink="http://www.w3.org/1999/xlink">
<g id="graph0" class="graph" transform="scale(1 1) rotate(0) translate(4 256)">
<title>workflow</title>
<polygon fill="white" stroke="none" points="-4,4 -4,-256 724,-256 724,4 -4,4"/>
<!-- place_12625ba3c14eddfc43fddb76cbc069528cec8b7f -->
<g id="node1" class="node"><title>place_12625ba3c14eddfc43fddb76cbc069528cec8b7f</title>
<ellipse fill="lightblue" stroke="#333333" cx="36" cy="-173" rx="36" ry="36"/>
<text text-anchor="middle" x="36" y="-170.8" font-family="Arial" font-size="9.00">waiting</text>
</g>
<!-- transition_4edc28b0fbd40ee10d045247420a5e6692535148 -->
<g id="node6" class="node"><title>transition_4edc28b0fbd40ee10d045247420a5e6692535148</title>
<polygon fill="none" stroke="#333333" points="180,-209 108,-209 108,-137 180,-137 180,-209"/>
<text text-anchor="middle" x="144" y="-170.8" font-family="Arial" font-size="9.00">disposal</text>
</g>
<!-- place_12625ba3c14eddfc43fddb76cbc069528cec8b7f&#45;&gt;transition_4edc28b0fbd40ee10d045247420a5e6692535148 -->
<g id="edge1" class="edge"><title>place_12625ba3c14eddfc43fddb76cbc069528cec8b7f&#45;&gt;transition_4edc28b0fbd40ee10d045247420a5e6692535148</title>
<path fill="none" stroke="#333333" d="M72.0021,-173C81.7591,-173 92.4394,-173 102.485,-173"/>
<polygon fill="#333333" stroke="#333333" points="102.672,-174.75 107.672,-173 102.672,-171.25 102.672,-174.75"/>
</g>
<!-- place_eeef42f87513f6dcbf91d0d8184c61215456de34 -->
<g id="node2" class="node"><title>place_eeef42f87513f6dcbf91d0d8184c61215456de34</title>
<ellipse fill="none" stroke="#333333" cx="684" cy="-126" rx="36" ry="36"/>
<text text-anchor="middle" x="684" y="-123.8" font-family="Arial" font-size="9.00">not_available</text>
</g>
<!-- place_fcc537881cd1d5bcddabf48fa8809c7471176de0 -->
<g id="node3" class="node"><title>place_fcc537881cd1d5bcddabf48fa8809c7471176de0</title>
<ellipse fill="none" stroke="#333333" cx="252" cy="-173" rx="36" ry="36"/>
<text text-anchor="middle" x="252" y="-170.8" font-family="Arial" font-size="9.00">inside</text>
</g>
<!-- transition_511bd3eb8a85954f966f49773dbfef76b833160a -->
<g id="node9" class="node"><title>transition_511bd3eb8a85954f966f49773dbfef76b833160a</title>
<polygon fill="none" stroke="#333333" points="396,-171 324,-171 324,-99 396,-99 396,-171"/>
<text text-anchor="middle" x="360" y="-132.8" font-family="Arial" font-size="9.00">rent</text>
</g>
<!-- place_fcc537881cd1d5bcddabf48fa8809c7471176de0&#45;&gt;transition_511bd3eb8a85954f966f49773dbfef76b833160a -->
<g id="edge7" class="edge"><title>place_fcc537881cd1d5bcddabf48fa8809c7471176de0&#45;&gt;transition_511bd3eb8a85954f966f49773dbfef76b833160a</title>
<path fill="none" stroke="#333333" d="M286.248,-161.081C296.568,-157.381 308.054,-153.264 318.794,-149.414"/>
<polygon fill="#333333" stroke="#333333" points="319.553,-151.001 323.669,-147.666 318.372,-147.706 319.553,-151.001"/>
</g>
<!-- place_45e18dad51fd9e8869897fba48fa93d118e5e404 -->
<g id="node4" class="node"><title>place_45e18dad51fd9e8869897fba48fa93d118e5e404</title>
<ellipse fill="none" stroke="#333333" cx="468" cy="-129" rx="36" ry="36"/>
<text text-anchor="middle" x="468" y="-126.8" font-family="Arial" font-size="9.00">outside</text>
</g>
<!-- transition_86a4261d849a6e99b3c3a38f7585e3c7d4a91823 -->
<g id="node7" class="node"><title>transition_86a4261d849a6e99b3c3a38f7585e3c7d4a91823</title>
<polygon fill="none" stroke="#333333" points="612,-252 540,-252 540,-180 612,-180 612,-252"/>
<text text-anchor="middle" x="576" y="-213.8" font-family="Arial" font-size="9.00">verify</text>
</g>
<!-- place_45e18dad51fd9e8869897fba48fa93d118e5e404&#45;&gt;transition_86a4261d849a6e99b3c3a38f7585e3c7d4a91823 -->
<g id="edge3" class="edge"><title>place_45e18dad51fd9e8869897fba48fa93d118e5e404&#45;&gt;transition_86a4261d849a6e99b3c3a38f7585e3c7d4a91823</title>
<path fill="none" stroke="#333333" d="M496.298,-151.405C508.305,-161.26 522.635,-173.022 535.757,-183.791"/>
<polygon fill="#333333" stroke="#333333" points="534.811,-185.279 539.786,-187.098 537.032,-182.573 534.811,-185.279"/>
</g>
<!-- transition_f5a82842be33d97c53146a313ad0efde38e5cb4d -->
<g id="node8" class="node"><title>transition_f5a82842be33d97c53146a313ad0efde38e5cb4d</title>
<polygon fill="none" stroke="#333333" points="612,-162 540,-162 540,-90 612,-90 612,-162"/>
<text text-anchor="middle" x="576" y="-123.8" font-family="Arial" font-size="9.00">retire</text>
</g>
<!-- place_45e18dad51fd9e8869897fba48fa93d118e5e404&#45;&gt;transition_f5a82842be33d97c53146a313ad0efde38e5cb4d -->
<g id="edge5" class="edge"><title>place_45e18dad51fd9e8869897fba48fa93d118e5e404&#45;&gt;transition_f5a82842be33d97c53146a313ad0efde38e5cb4d</title>
<path fill="none" stroke="#333333" d="M504.002,-128.009C513.759,-127.733 524.439,-127.431 534.485,-127.147"/>
<polygon fill="#333333" stroke="#333333" points="534.724,-128.891 539.672,-127 534.625,-125.392 534.724,-128.891"/>
</g>
<!-- transition_5bac43c0231290341c42a3cef48b789922d02b35 -->
<g id="node10" class="node"><title>transition_5bac43c0231290341c42a3cef48b789922d02b35</title>
<polygon fill="none" stroke="#333333" points="612,-72 540,-72 540,-0 612,-0 612,-72"/>
<text text-anchor="middle" x="576" y="-33.8" font-family="Arial" font-size="9.00">reserve</text>
</g>
<!-- place_45e18dad51fd9e8869897fba48fa93d118e5e404&#45;&gt;transition_5bac43c0231290341c42a3cef48b789922d02b35 -->
<g id="edge9" class="edge"><title>place_45e18dad51fd9e8869897fba48fa93d118e5e404&#45;&gt;transition_5bac43c0231290341c42a3cef48b789922d02b35</title>
<path fill="none" stroke="#333333" d="M495.748,-105.532C507.865,-94.9014 522.431,-82.122 535.752,-70.4349"/>
<polygon fill="#333333" stroke="#333333" points="537.237,-71.4596 539.842,-66.8465 534.929,-68.8286 537.237,-71.4596"/>
</g>
<!-- place_c3fed1dae28105416889eb25d33d7d24c7a20450 -->
<g id="node5" class="node"><title>place_c3fed1dae28105416889eb25d33d7d24c7a20450</title>
<ellipse fill="none" stroke="#333333" cx="684" cy="-36" rx="36" ry="36"/>
<text text-anchor="middle" x="684" y="-33.8" font-family="Arial" font-size="9.00">reserved</text>
</g>
<!-- transition_4edc28b0fbd40ee10d045247420a5e6692535148&#45;&gt;place_fcc537881cd1d5bcddabf48fa8809c7471176de0 -->
<g id="edge2" class="edge"><title>transition_4edc28b0fbd40ee10d045247420a5e6692535148&#45;&gt;place_fcc537881cd1d5bcddabf48fa8809c7471176de0</title>
<path fill="none" stroke="#333333" d="M180.002,-173C189.759,-173 200.439,-173 210.485,-173"/>
<polygon fill="#333333" stroke="#333333" points="210.672,-174.75 215.672,-173 210.672,-171.25 210.672,-174.75"/>
</g>
<!-- transition_86a4261d849a6e99b3c3a38f7585e3c7d4a91823&#45;&gt;place_fcc537881cd1d5bcddabf48fa8809c7471176de0 -->
<g id="edge4" class="edge"><title>transition_86a4261d849a6e99b3c3a38f7585e3c7d4a91823&#45;&gt;place_fcc537881cd1d5bcddabf48fa8809c7471176de0</title>
<path fill="none" stroke="#333333" d="M539.891,-211.312C479.547,-203.253 356.528,-186.825 292.981,-178.339"/>
<polygon fill="#333333" stroke="#333333" points="292.953,-176.57 287.766,-177.643 292.49,-180.039 292.953,-176.57"/>
</g>
<!-- transition_f5a82842be33d97c53146a313ad0efde38e5cb4d&#45;&gt;place_eeef42f87513f6dcbf91d0d8184c61215456de34 -->
<g id="edge6" class="edge"><title>transition_f5a82842be33d97c53146a313ad0efde38e5cb4d&#45;&gt;place_eeef42f87513f6dcbf91d0d8184c61215456de34</title>
<path fill="none" stroke="#333333" d="M612.002,-126C621.759,-126 632.439,-126 642.485,-126"/>
<polygon fill="#333333" stroke="#333333" points="642.672,-127.75 647.672,-126 642.672,-124.25 642.672,-127.75"/>
</g>
<!-- transition_511bd3eb8a85954f966f49773dbfef76b833160a&#45;&gt;place_45e18dad51fd9e8869897fba48fa93d118e5e404 -->
<g id="edge8" class="edge"><title>transition_511bd3eb8a85954f966f49773dbfef76b833160a&#45;&gt;place_45e18dad51fd9e8869897fba48fa93d118e5e404</title>
<path fill="none" stroke="#333333" d="M396.002,-133.019C405.862,-132.461 416.664,-131.849 426.802,-131.275"/>
<polygon fill="#333333" stroke="#333333" points="427.142,-133.009 432.035,-130.979 426.944,-129.515 427.142,-133.009"/>
</g>
<!-- transition_5bac43c0231290341c42a3cef48b789922d02b35&#45;&gt;place_c3fed1dae28105416889eb25d33d7d24c7a20450 -->
<g id="edge10" class="edge"><title>transition_5bac43c0231290341c42a3cef48b789922d02b35&#45;&gt;place_c3fed1dae28105416889eb25d33d7d24c7a20450</title>
<path fill="none" stroke="#333333" d="M612.002,-36C621.759,-36 632.439,-36 642.485,-36"/>
<polygon fill="#333333" stroke="#333333" points="642.672,-37.7501 647.672,-36 642.672,-34.2501 642.672,-37.7501"/>
</g>
</g>
</svg>
