<?xml version="1.0" encoding="UTF-8" standalone="no"?>
<!DOCTYPE svg PUBLIC "-//W3C//DTD SVG 1.1//EN"
 "http://www.w3.org/Graphics/SVG/1.1/DTD/svg11.dtd">
<!-- Generated by graphviz version 2.38.0 (20140413.2041)
 -->
<!-- Title: workflow Pages: 1 -->
<svg width="836pt" height="506pt"
 viewBox="0.00 0.00 836.00 506.00" xmlns="http://www.w3.org/2000/svg" xmlns:xlink="http://www.w3.org/1999/xlink">
<g id="graph0" class="graph" transform="scale(1 1) rotate(0) translate(4 502)">
<title>workflow</title>
<polygon fill="white" stroke="none" points="-4,4 -4,-502 832,-502 832,4 -4,4"/>
<!-- place_fcc537881cd1d5bcddabf48fa8809c7471176de0 -->
<g id="node1" class="node"><title>place_fcc537881cd1d5bcddabf48fa8809c7471176de0</title>
<ellipse fill="lightblue" stroke="#333333" cx="36" cy="-102" rx="36" ry="36"/>
<text text-anchor="middle" x="36" y="-99.8" font-family="Arial" font-size="9.00">inside</text>
</g>
<!-- transition_511bd3eb8a85954f966f49773dbfef76b833160a -->
<g id="node5" class="node"><title>transition_511bd3eb8a85954f966f49773dbfef76b833160a</title>
<polygon fill="none" stroke="#333333" points="180,-285 108,-285 108,-213 180,-213 180,-285"/>
<text text-anchor="middle" x="144" y="-246.8" font-family="Arial" font-size="9.00">rent</text>
</g>
<!-- place_fcc537881cd1d5bcddabf48fa8809c7471176de0&#45;&gt;transition_511bd3eb8a85954f966f49773dbfef76b833160a -->
<g id="edge1" class="edge"><title>place_fcc537881cd1d5bcddabf48fa8809c7471176de0&#45;&gt;transition_511bd3eb8a85954f966f49773dbfef76b833160a</title>
<path fill="none" stroke="#333333" d="M57.9422,-131.042C73.9692,-153.269 96.261,-184.183 114.003,-208.787"/>
<polygon fill="#333333" stroke="#333333" points="112.691,-209.959 117.035,-212.991 115.529,-207.912 112.691,-209.959"/>
</g>
<!-- transition_b955334da39e8790cf535290ff47f5c90f74ef40 -->
<g id="node6" class="node"><title>transition_b955334da39e8790cf535290ff47f5c90f74ef40</title>
<polygon fill="none" stroke="#333333" points="180,-138 108,-138 108,-66 180,-66 180,-138"/>
<text text-anchor="middle" x="144" y="-99.8" font-family="Arial" font-size="9.00">inside_reserv</text>
</g>
<!-- place_fcc537881cd1d5bcddabf48fa8809c7471176de0&#45;&gt;transition_b955334da39e8790cf535290ff47f5c90f74ef40 -->
<g id="edge3" class="edge"><title>place_fcc537881cd1d5bcddabf48fa8809c7471176de0&#45;&gt;transition_b955334da39e8790cf535290ff47f5c90f74ef40</title>
<path fill="none" stroke="#333333" d="M71.7084,-95.6208C81.5803,-95.2051 92.4174,-95.1389 102.596,-95.4224"/>
<polygon fill="#333333" stroke="#333333" points="102.794,-97.1801 107.851,-95.6025 102.914,-93.6821 102.794,-97.1801"/>
</g>
<!-- place_45e18dad51fd9e8869897fba48fa93d118e5e404 -->
<g id="node2" class="node"><title>place_45e18dad51fd9e8869897fba48fa93d118e5e404</title>
<ellipse fill="none" stroke="#333333" cx="252" cy="-268" rx="36" ry="36"/>
<text text-anchor="middle" x="252" y="-265.8" font-family="Arial" font-size="9.00">outside</text>
</g>
<!-- transition_6d2479d1ab88667b98ca6024846fed6207bb10f2 -->
<g id="node7" class="node"><title>transition_6d2479d1ab88667b98ca6024846fed6207bb10f2</title>
<polygon fill="none" stroke="#333333" points="396,-304 324,-304 324,-232 396,-232 396,-304"/>
<text text-anchor="middle" x="360" y="-265.8" font-family="Arial" font-size="9.00">rent_reserv</text>
</g>
<!-- place_45e18dad51fd9e8869897fba48fa93d118e5e404&#45;&gt;transition_6d2479d1ab88667b98ca6024846fed6207bb10f2 -->
<g id="edge6" class="edge"><title>place_45e18dad51fd9e8869897fba48fa93d118e5e404&#45;&gt;transition_6d2479d1ab88667b98ca6024846fed6207bb10f2</title>
<path fill="none" stroke="#333333" d="M287.708,-261.621C297.58,-261.205 308.417,-261.139 318.596,-261.422"/>
<polygon fill="#333333" stroke="#333333" points="318.794,-263.18 323.851,-261.602 318.914,-259.682 318.794,-263.18"/>
</g>
<!-- transition_63143b6f8007b98c53ca2149822777b3566f9241 -->
<g id="node8" class="node"><title>transition_63143b6f8007b98c53ca2149822777b3566f9241</title>
<polygon fill="none" stroke="#333333" points="396,-176 324,-176 324,-104 396,-104 396,-176"/>
<text text-anchor="middle" x="360" y="-137.8" font-family="Arial" font-size="9.00">return</text>
</g>
<!-- place_45e18dad51fd9e8869897fba48fa93d118e5e404&#45;&gt;transition_63143b6f8007b98c53ca2149822777b3566f9241 -->
<g id="edge9" class="edge"><title>place_45e18dad51fd9e8869897fba48fa93d118e5e404&#45;&gt;transition_63143b6f8007b98c53ca2149822777b3566f9241</title>
<path fill="none" stroke="#333333" d="M275.74,-240.541C290.339,-222.911 309.546,-199.717 325.833,-180.05"/>
<polygon fill="#333333" stroke="#333333" points="327.208,-181.134 329.05,-176.166 324.513,-178.901 327.208,-181.134"/>
</g>
<!-- transition_ba0183f387c29c2eef3c45a3c6d37458041d349a -->
<g id="node9" class="node"><title>transition_ba0183f387c29c2eef3c45a3c6d37458041d349a</title>
<polygon fill="none" stroke="#333333" points="612,-245 540,-245 540,-173 612,-173 612,-245"/>
<text text-anchor="middle" x="576" y="-206.8" font-family="Arial" font-size="9.00">return_reserv</text>
</g>
<!-- place_45e18dad51fd9e8869897fba48fa93d118e5e404&#45;&gt;transition_ba0183f387c29c2eef3c45a3c6d37458041d349a -->
<g id="edge11" class="edge"><title>place_45e18dad51fd9e8869897fba48fa93d118e5e404&#45;&gt;transition_ba0183f387c29c2eef3c45a3c6d37458041d349a</title>
<path fill="none" stroke="#333333" d="M280.685,-245.805C293.178,-237.064 308.575,-227.946 324,-223 395.52,-200.066 484.309,-201.639 534.83,-205.134"/>
<polygon fill="#333333" stroke="#333333" points="534.784,-206.886 539.898,-205.5 535.037,-203.395 534.784,-206.886"/>
</g>
<!-- transition_64916df45cb60700aa70869c92c0cdae8cc044f9 -->
<g id="node10" class="node"><title>transition_64916df45cb60700aa70869c92c0cdae8cc044f9</title>
<polygon fill="none" stroke="#333333" points="504,-432 432,-432 432,-360 504,-360 504,-432"/>
<text text-anchor="middle" x="468" y="-393.8" font-family="Arial" font-size="9.00">return_ko</text>
</g>
<!-- place_45e18dad51fd9e8869897fba48fa93d118e5e404&#45;&gt;transition_64916df45cb60700aa70869c92c0cdae8cc044f9 -->
<g id="edge15" class="edge"><title>place_45e18dad51fd9e8869897fba48fa93d118e5e404&#45;&gt;transition_64916df45cb60700aa70869c92c0cdae8cc044f9</title>
<path fill="none" stroke="#333333" d="M273.537,-296.922C286.423,-313.265 304.298,-332.969 324,-346 355.52,-366.847 396.707,-380.044 426.779,-387.611"/>
<polygon fill="#333333" stroke="#333333" points="426.609,-389.371 431.882,-388.868 427.446,-385.973 426.609,-389.371"/>
</g>
<!-- transition_34cc435274f0a4cbcb02210f7b094dc31ae3347e -->
<g id="node11" class="node"><title>transition_34cc435274f0a4cbcb02210f7b094dc31ae3347e</title>
<polygon fill="none" stroke="#333333" points="612,-354 540,-354 540,-282 612,-282 612,-354"/>
<text text-anchor="middle" x="576" y="-315.8" font-family="Arial" font-size="9.00">return_res_ko</text>
</g>
<!-- place_45e18dad51fd9e8869897fba48fa93d118e5e404&#45;&gt;transition_34cc435274f0a4cbcb02210f7b094dc31ae3347e -->
<g id="edge17" class="edge"><title>place_45e18dad51fd9e8869897fba48fa93d118e5e404&#45;&gt;transition_34cc435274f0a4cbcb02210f7b094dc31ae3347e</title>
<path fill="none" stroke="#333333" d="M280.602,-290.462C293.08,-299.25 308.489,-308.33 324,-313 395.822,-334.621 484.506,-329.433 534.927,-323.709"/>
<polygon fill="#333333" stroke="#333333" points="535.221,-325.437 539.984,-323.119 534.815,-321.961 535.221,-325.437"/>
</g>
<!-- transition_dab4cfbed01e8b738e2e10a5b83ef03d3f1753ca -->
<g id="node12" class="node"><title>transition_dab4cfbed01e8b738e2e10a5b83ef03d3f1753ca</title>
<polygon fill="none" stroke="#333333" points="612,-496 540,-496 540,-424 612,-424 612,-496"/>
<text text-anchor="middle" x="576" y="-457.8" font-family="Arial" font-size="9.00">ret_no_res_ins</text>
</g>
<!-- place_45e18dad51fd9e8869897fba48fa93d118e5e404&#45;&gt;transition_dab4cfbed01e8b738e2e10a5b83ef03d3f1753ca -->
<g id="edge20" class="edge"><title>place_45e18dad51fd9e8869897fba48fa93d118e5e404&#45;&gt;transition_dab4cfbed01e8b738e2e10a5b83ef03d3f1753ca</title>
<path fill="none" stroke="#333333" d="M269.031,-300.042C281.693,-323.107 301.026,-353.922 324,-376 364.394,-414.818 379.127,-422.479 432,-441 465.377,-452.692 505.443,-457.266 534.662,-459.018"/>
<polygon fill="#333333" stroke="#333333" points="534.899,-460.783 539.988,-459.313 535.092,-457.289 534.899,-460.783"/>
</g>
<!-- place_c3fed1dae28105416889eb25d33d7d24c7a20450 -->
<g id="node3" class="node"><title>place_c3fed1dae28105416889eb25d33d7d24c7a20450</title>
<ellipse fill="none" stroke="#333333" cx="468" cy="-268" rx="36" ry="36"/>
<text text-anchor="middle" x="468" y="-265.8" font-family="Arial" font-size="9.00">reserved</text>
</g>
<!-- place_c3fed1dae28105416889eb25d33d7d24c7a20450&#45;&gt;transition_ba0183f387c29c2eef3c45a3c6d37458041d349a -->
<g id="edge12" class="edge"><title>place_c3fed1dae28105416889eb25d33d7d24c7a20450&#45;&gt;transition_ba0183f387c29c2eef3c45a3c6d37458041d349a</title>
<path fill="none" stroke="#333333" d="M497.128,-246.304C508.818,-239.078 522.595,-231.237 535.286,-224.547"/>
<polygon fill="#333333" stroke="#333333" points="536.283,-226.001 539.907,-222.138 534.664,-222.898 536.283,-226.001"/>
</g>
<!-- place_c3fed1dae28105416889eb25d33d7d24c7a20450&#45;&gt;transition_34cc435274f0a4cbcb02210f7b094dc31ae3347e -->
<g id="edge18" class="edge"><title>place_c3fed1dae28105416889eb25d33d7d24c7a20450&#45;&gt;transition_34cc435274f0a4cbcb02210f7b094dc31ae3347e</title>
<path fill="none" stroke="#333333" d="M500.803,-283.002C511.582,-288.086 523.761,-293.831 535.089,-299.174"/>
<polygon fill="#333333" stroke="#333333" points="534.616,-300.886 539.885,-301.436 536.11,-297.721 534.616,-300.886"/>
</g>
<!-- place_c3fed1dae28105416889eb25d33d7d24c7a20450&#45;&gt;transition_dab4cfbed01e8b738e2e10a5b83ef03d3f1753ca -->
<g id="edge21" class="edge"><title>place_c3fed1dae28105416889eb25d33d7d24c7a20450&#45;&gt;transition_dab4cfbed01e8b738e2e10a5b83ef03d3f1753ca</title>
<path fill="none" stroke="#333333" d="M486.267,-299.275C504.289,-331.919 532.629,-383.253 552.418,-419.096"/>
<polygon fill="#333333" stroke="#333333" points="551.081,-420.296 555.03,-423.827 554.145,-418.604 551.081,-420.296"/>
</g>
<!-- place_eeef42f87513f6dcbf91d0d8184c61215456de34 -->
<g id="node4" class="node"><title>place_eeef42f87513f6dcbf91d0d8184c61215456de34</title>
<ellipse fill="none" stroke="#333333" cx="684" cy="-318" rx="36" ry="36"/>
<text text-anchor="middle" x="684" y="-315.8" font-family="Arial" font-size="9.00">not_available</text>
</g>
<!-- transition_17a3a24e36c48891e8b53e893381d9778acd9114 -->
<g id="node13" class="node"><title>transition_17a3a24e36c48891e8b53e893381d9778acd9114</title>
<polygon fill="none" stroke="#333333" points="828,-195 756,-195 756,-123 828,-123 828,-195"/>
<text text-anchor="middle" x="792" y="-156.8" font-family="Arial" font-size="9.00">repaired</text>
</g>
<!-- place_eeef42f87513f6dcbf91d0d8184c61215456de34&#45;&gt;transition_17a3a24e36c48891e8b53e893381d9778acd9114 -->
<g id="edge23" class="edge"><title>place_eeef42f87513f6dcbf91d0d8184c61215456de34&#45;&gt;transition_17a3a24e36c48891e8b53e893381d9778acd9114</title>
<path fill="none" stroke="#333333" d="M704.689,-288.466C721.398,-263.403 745.534,-227.199 764.037,-199.444"/>
<polygon fill="#333333" stroke="#333333" points="765.639,-200.197 766.956,-195.066 762.727,-198.255 765.639,-200.197"/>
</g>
<!-- transition_511bd3eb8a85954f966f49773dbfef76b833160a&#45;&gt;place_45e18dad51fd9e8869897fba48fa93d118e5e404 -->
<g id="edge2" class="edge"><title>transition_511bd3eb8a85954f966f49773dbfef76b833160a&#45;&gt;place_45e18dad51fd9e8869897fba48fa93d118e5e404</title>
<path fill="none" stroke="#333333" d="M180.002,-255.274C190.056,-257.076 201.09,-259.054 211.4,-260.902"/>
<polygon fill="#333333" stroke="#333333" points="211.166,-262.638 216.396,-261.797 211.783,-259.193 211.166,-262.638"/>
</g>
<!-- transition_b955334da39e8790cf535290ff47f5c90f74ef40&#45;&gt;place_fcc537881cd1d5bcddabf48fa8809c7471176de0 -->
<g id="edge4" class="edge"><title>transition_b955334da39e8790cf535290ff47f5c90f74ef40&#45;&gt;place_fcc537881cd1d5bcddabf48fa8809c7471176de0</title>
<path fill="none" stroke="#333333" d="M107.851,-108.398C97.9505,-108.803 87.1092,-108.859 76.9501,-108.565"/>
<polygon fill="#333333" stroke="#333333" points="76.7672,-106.807 71.7084,-108.379 76.6433,-110.305 76.7672,-106.807"/>
</g>
<!-- transition_b955334da39e8790cf535290ff47f5c90f74ef40&#45;&gt;place_c3fed1dae28105416889eb25d33d7d24c7a20450 -->
<g id="edge5" class="edge"><title>transition_b955334da39e8790cf535290ff47f5c90f74ef40&#45;&gt;place_c3fed1dae28105416889eb25d33d7d24c7a20450</title>
<path fill="none" stroke="#333333" d="M180.133,-89.2345C232.128,-72.7512 330.465,-51.0566 396,-95 439.702,-124.303 456.526,-185.841 462.989,-227.054"/>
<polygon fill="#333333" stroke="#333333" points="461.292,-227.54 463.763,-232.227 464.754,-227.023 461.292,-227.54"/>
</g>
<!-- transition_6d2479d1ab88667b98ca6024846fed6207bb10f2&#45;&gt;place_45e18dad51fd9e8869897fba48fa93d118e5e404 -->
<g id="edge7" class="edge"><title>transition_6d2479d1ab88667b98ca6024846fed6207bb10f2&#45;&gt;place_45e18dad51fd9e8869897fba48fa93d118e5e404</title>
<path fill="none" stroke="#333333" d="M323.851,-274.398C313.95,-274.803 303.109,-274.859 292.95,-274.565"/>
<polygon fill="#333333" stroke="#333333" points="292.767,-272.807 287.708,-274.379 292.643,-276.305 292.767,-272.807"/>
</g>
<!-- transition_6d2479d1ab88667b98ca6024846fed6207bb10f2&#45;&gt;place_c3fed1dae28105416889eb25d33d7d24c7a20450 -->
<g id="edge8" class="edge"><title>transition_6d2479d1ab88667b98ca6024846fed6207bb10f2&#45;&gt;place_c3fed1dae28105416889eb25d33d7d24c7a20450</title>
<path fill="none" stroke="#333333" d="M396.002,-268C405.759,-268 416.439,-268 426.485,-268"/>
<polygon fill="#333333" stroke="#333333" points="426.672,-269.75 431.672,-268 426.672,-266.25 426.672,-269.75"/>
</g>
<!-- transition_63143b6f8007b98c53ca2149822777b3566f9241&#45;&gt;place_fcc537881cd1d5bcddabf48fa8809c7471176de0 -->
<g id="edge10" class="edge"><title>transition_63143b6f8007b98c53ca2149822777b3566f9241&#45;&gt;place_fcc537881cd1d5bcddabf48fa8809c7471176de0</title>
<path fill="none" stroke="#333333" d="M323.633,-147.654C274.242,-156.861 182.312,-168.566 108,-147 94.0197,-142.943 80.1545,-135.215 68.4374,-127.293"/>
<polygon fill="#333333" stroke="#333333" points="69.3281,-125.782 64.2215,-124.373 67.3348,-128.659 69.3281,-125.782"/>
</g>
<!-- transition_ba0183f387c29c2eef3c45a3c6d37458041d349a&#45;&gt;place_fcc537881cd1d5bcddabf48fa8809c7471176de0 -->
<g id="edge13" class="edge"><title>transition_ba0183f387c29c2eef3c45a3c6d37458041d349a&#45;&gt;place_fcc537881cd1d5bcddabf48fa8809c7471176de0</title>
<path fill="none" stroke="#333333" d="M552.25,-172.735C517.625,-122.54 446.603,-38 361,-38 251,-38 251,-38 251,-38 186.886,-38 168.26,-35.1058 108,-57 94.4401,-61.9267 80.765,-69.759 69.0859,-77.5182"/>
<polygon fill="#333333" stroke="#333333" points="68.0362,-76.1154 64.8772,-80.3679 69.9986,-79.0135 68.0362,-76.1154"/>
</g>
<!-- transition_ba0183f387c29c2eef3c45a3c6d37458041d349a&#45;&gt;place_c3fed1dae28105416889eb25d33d7d24c7a20450 -->
<g id="edge14" class="edge"><title>transition_ba0183f387c29c2eef3c45a3c6d37458041d349a&#45;&gt;place_c3fed1dae28105416889eb25d33d7d24c7a20450</title>
<path fill="none" stroke="#333333" d="M539.858,-234.958C529.168,-241.345 517.381,-247.936 506.54,-253.593"/>
<polygon fill="#333333" stroke="#333333" points="505.599,-252.109 501.958,-255.957 507.204,-255.22 505.599,-252.109"/>
</g>
<!-- transition_64916df45cb60700aa70869c92c0cdae8cc044f9&#45;&gt;place_eeef42f87513f6dcbf91d0d8184c61215456de34 -->
<g id="edge16" class="edge"><title>transition_64916df45cb60700aa70869c92c0cdae8cc044f9&#45;&gt;place_eeef42f87513f6dcbf91d0d8184c61215456de34</title>
<path fill="none" stroke="#333333" d="M504.111,-391.292C533.703,-386.534 576.737,-377.737 612,-363 625.192,-357.487 638.685,-349.603 650.317,-341.971"/>
<polygon fill="#333333" stroke="#333333" points="651.323,-343.403 654.514,-339.175 649.382,-340.49 651.323,-343.403"/>
</g>
<!-- transition_34cc435274f0a4cbcb02210f7b094dc31ae3347e&#45;&gt;place_eeef42f87513f6dcbf91d0d8184c61215456de34 -->
<g id="edge19" class="edge"><title>transition_34cc435274f0a4cbcb02210f7b094dc31ae3347e&#45;&gt;place_eeef42f87513f6dcbf91d0d8184c61215456de34</title>
<path fill="none" stroke="#333333" d="M612.002,-318C621.759,-318 632.439,-318 642.485,-318"/>
<polygon fill="#333333" stroke="#333333" points="642.672,-319.75 647.672,-318 642.672,-316.25 642.672,-319.75"/>
</g>
<!-- transition_dab4cfbed01e8b738e2e10a5b83ef03d3f1753ca&#45;&gt;place_fcc537881cd1d5bcddabf48fa8809c7471176de0 -->
<g id="edge22" class="edge"><title>transition_dab4cfbed01e8b738e2e10a5b83ef03d3f1753ca&#45;&gt;place_fcc537881cd1d5bcddabf48fa8809c7471176de0</title>
<path fill="none" stroke="#333333" d="M539.747,-470.183C497.606,-481.439 424.77,-498 361,-498 251,-498 251,-498 251,-498 90.7693,-498 49.9271,-243.969 40.016,-142.83"/>
<polygon fill="#333333" stroke="#333333" points="41.757,-142.652 39.54,-137.841 38.2728,-142.984 41.757,-142.652"/>
</g>
<!-- transition_17a3a24e36c48891e8b53e893381d9778acd9114&#45;&gt;place_fcc537881cd1d5bcddabf48fa8809c7471176de0 -->
<g id="edge24" class="edge"><title>transition_17a3a24e36c48891e8b53e893381d9778acd9114&#45;&gt;place_fcc537881cd1d5bcddabf48fa8809c7471176de0</title>
<path fill="none" stroke="#333333" d="M765.845,-122.92C729.864,-76.0088 658.925,-0 577,-0 251,-0 251,-0 251,-0 185.461,-7.10543e-15 165.585,-4.70742 108,-36 91.6508,-44.8843 76.1803,-58.4052 63.8791,-70.9007"/>
<polygon fill="#333333" stroke="#333333" points="62.3843,-69.9289 60.1657,-74.7394 64.8999,-72.3624 62.3843,-69.9289"/>
</g>
</g>
</svg>
