<?xml version="1.0" encoding="UTF-8" standalone="no"?>
<!DOCTYPE svg PUBLIC "-//W3C//DTD SVG 1.1//EN"
 "http://www.w3.org/Graphics/SVG/1.1/DTD/svg11.dtd">
<!-- Generated by graphviz version 2.38.0 (20140413.2041)
 -->
<!-- Title: workflow Pages: 1 -->
<svg width="836pt" height="307pt"
 viewBox="0.00 0.00 836.00 306.72" xmlns="http://www.w3.org/2000/svg" xmlns:xlink="http://www.w3.org/1999/xlink">
<g id="graph0" class="graph" transform="scale(1 1) rotate(0) translate(4 302.724)">
<title>workflow</title>
<polygon fill="white" stroke="none" points="-4,4 -4,-302.724 832,-302.724 832,4 -4,4"/>
<!-- place_12625ba3c14eddfc43fddb76cbc069528cec8b7f -->
<g id="node1" class="node"><title>place_12625ba3c14eddfc43fddb76cbc069528cec8b7f</title>
<ellipse fill="lightblue" stroke="#333333" cx="36" cy="-80.7235" rx="36" ry="36"/>
<text text-anchor="middle" x="36" y="-78.5235" font-family="Arial" font-size="9.00">waiting</text>
</g>
<!-- transition_d38626a856365c923733f74c0a626686693bcb9e -->
<g id="node6" class="node"><title>transition_d38626a856365c923733f74c0a626686693bcb9e</title>
<polygon fill="none" stroke="#333333" points="180,-116.724 108,-116.724 108,-44.7235 180,-44.7235 180,-116.724"/>
<text text-anchor="middle" x="144" y="-78.5235" font-family="Arial" font-size="9.00">dispose</text>
</g>
<!-- place_12625ba3c14eddfc43fddb76cbc069528cec8b7f&#45;&gt;transition_d38626a856365c923733f74c0a626686693bcb9e -->
<g id="edge1" class="edge"><title>place_12625ba3c14eddfc43fddb76cbc069528cec8b7f&#45;&gt;transition_d38626a856365c923733f74c0a626686693bcb9e</title>
<path fill="none" stroke="#333333" d="M72.0021,-80.7235C81.7591,-80.7235 92.4394,-80.7235 102.485,-80.7235"/>
<polygon fill="#333333" stroke="#333333" points="102.672,-82.4736 107.672,-80.7235 102.672,-78.9736 102.672,-82.4736"/>
</g>
<!-- place_fcc537881cd1d5bcddabf48fa8809c7471176de0 -->
<g id="node2" class="node"><title>place_fcc537881cd1d5bcddabf48fa8809c7471176de0</title>
<ellipse fill="none" stroke="#333333" cx="252" cy="-160.724" rx="36" ry="36"/>
<text text-anchor="middle" x="252" y="-158.524" font-family="Arial" font-size="9.00">inside</text>
</g>
<!-- transition_511bd3eb8a85954f966f49773dbfef76b833160a -->
<g id="node8" class="node"><title>transition_511bd3eb8a85954f966f49773dbfef76b833160a</title>
<polygon fill="none" stroke="#333333" points="396,-196.724 324,-196.724 324,-124.724 396,-124.724 396,-196.724"/>
<text text-anchor="middle" x="360" y="-158.524" font-family="Arial" font-size="9.00">rent</text>
</g>
<!-- place_fcc537881cd1d5bcddabf48fa8809c7471176de0&#45;&gt;transition_511bd3eb8a85954f966f49773dbfef76b833160a -->
<g id="edge7" class="edge"><title>place_fcc537881cd1d5bcddabf48fa8809c7471176de0&#45;&gt;transition_511bd3eb8a85954f966f49773dbfef76b833160a</title>
<path fill="none" stroke="#333333" d="M288.002,-160.724C297.759,-160.724 308.439,-160.724 318.485,-160.724"/>
<polygon fill="#333333" stroke="#333333" points="318.672,-162.474 323.672,-160.724 318.672,-158.974 318.672,-162.474"/>
</g>
<!-- transition_5bac43c0231290341c42a3cef48b789922d02b35 -->
<g id="node9" class="node"><title>transition_5bac43c0231290341c42a3cef48b789922d02b35</title>
<polygon fill="none" stroke="#333333" points="612,-100.724 540,-100.724 540,-28.7235 612,-28.7235 612,-100.724"/>
<text text-anchor="middle" x="576" y="-62.5235" font-family="Arial" font-size="9.00">reserve</text>
</g>
<!-- place_fcc537881cd1d5bcddabf48fa8809c7471176de0&#45;&gt;transition_5bac43c0231290341c42a3cef48b789922d02b35 -->
<g id="edge11" class="edge"><title>place_fcc537881cd1d5bcddabf48fa8809c7471176de0&#45;&gt;transition_5bac43c0231290341c42a3cef48b789922d02b35</title>
<path fill="none" stroke="#333333" d="M281.408,-139.358C293.905,-130.869 309.108,-121.718 324,-115.724 394.988,-87.1492 483.96,-73.9454 534.658,-68.3596"/>
<polygon fill="#333333" stroke="#333333" points="534.961,-70.0872 539.744,-67.8107 534.585,-66.6074 534.961,-70.0872"/>
</g>
<!-- place_45e18dad51fd9e8869897fba48fa93d118e5e404 -->
<g id="node3" class="node"><title>place_45e18dad51fd9e8869897fba48fa93d118e5e404</title>
<ellipse fill="none" stroke="#333333" cx="468" cy="-192.724" rx="36" ry="36"/>
<text text-anchor="middle" x="468" y="-190.524" font-family="Arial" font-size="9.00">outside</text>
</g>
<!-- transition_63143b6f8007b98c53ca2149822777b3566f9241 -->
<g id="node7" class="node"><title>transition_63143b6f8007b98c53ca2149822777b3566f9241</title>
<polygon fill="none" stroke="#333333" points="612,-266.724 540,-266.724 540,-194.724 612,-194.724 612,-266.724"/>
<text text-anchor="middle" x="576" y="-228.524" font-family="Arial" font-size="9.00">return</text>
</g>
<!-- place_45e18dad51fd9e8869897fba48fa93d118e5e404&#45;&gt;transition_63143b6f8007b98c53ca2149822777b3566f9241 -->
<g id="edge4" class="edge"><title>place_45e18dad51fd9e8869897fba48fa93d118e5e404&#45;&gt;transition_63143b6f8007b98c53ca2149822777b3566f9241</title>
<path fill="none" stroke="#333333" d="M502.248,-204.643C512.568,-208.342 524.054,-212.46 534.794,-216.31"/>
<polygon fill="#333333" stroke="#333333" points="534.372,-218.018 539.669,-218.058 535.553,-214.723 534.372,-218.018"/>
</g>
<!-- place_45e18dad51fd9e8869897fba48fa93d118e5e404&#45;&gt;transition_5bac43c0231290341c42a3cef48b789922d02b35 -->
<g id="edge10" class="edge"><title>place_45e18dad51fd9e8869897fba48fa93d118e5e404&#45;&gt;transition_5bac43c0231290341c42a3cef48b789922d02b35</title>
<path fill="none" stroke="#333333" d="M491.74,-165.264C506.339,-147.634 525.546,-124.441 541.833,-104.774"/>
<polygon fill="#333333" stroke="#333333" points="543.208,-105.857 545.05,-100.89 540.513,-103.625 543.208,-105.857"/>
</g>
<!-- place_c3fed1dae28105416889eb25d33d7d24c7a20450 -->
<g id="node4" class="node"><title>place_c3fed1dae28105416889eb25d33d7d24c7a20450</title>
<ellipse fill="none" stroke="#333333" cx="684" cy="-64.7235" rx="36" ry="36"/>
<text text-anchor="middle" x="684" y="-62.5235" font-family="Arial" font-size="9.00">reserved</text>
</g>
<!-- place_c3fed1dae28105416889eb25d33d7d24c7a20450&#45;&gt;transition_d38626a856365c923733f74c0a626686693bcb9e -->
<g id="edge2" class="edge"><title>place_c3fed1dae28105416889eb25d33d7d24c7a20450&#45;&gt;transition_d38626a856365c923733f74c0a626686693bcb9e</title>
<path fill="none" stroke="#333333" d="M655.123,-43.0915C642.596,-34.4501 627.225,-25.2553 612,-19.7235 551.74,2.17061 533.114,-0.723538 469,-0.723538 359,-0.723538 359,-0.723538 359,-0.723538 294.899,-0.723538 226.445,-32.6061 184.681,-56.1167"/>
<polygon fill="#333333" stroke="#333333" points="183.704,-54.6586 180.223,-58.6514 185.435,-57.7011 183.704,-54.6586"/>
</g>
<!-- place_c3fed1dae28105416889eb25d33d7d24c7a20450&#45;&gt;transition_511bd3eb8a85954f966f49773dbfef76b833160a -->
<g id="edge8" class="edge"><title>place_c3fed1dae28105416889eb25d33d7d24c7a20450&#45;&gt;transition_511bd3eb8a85954f966f49773dbfef76b833160a</title>
<path fill="none" stroke="#333333" d="M654.592,-86.0892C642.095,-94.5778 626.892,-103.729 612,-109.724 592.652,-117.511 466.855,-141.276 401.024,-153.417"/>
<polygon fill="#333333" stroke="#333333" points="400.605,-151.715 396.004,-154.342 401.239,-155.157 400.605,-151.715"/>
</g>
<!-- place_eeef42f87513f6dcbf91d0d8184c61215456de34 -->
<g id="node5" class="node"><title>place_eeef42f87513f6dcbf91d0d8184c61215456de34</title>
<ellipse fill="none" stroke="#333333" cx="684" cy="-230.724" rx="36" ry="36"/>
<text text-anchor="middle" x="684" y="-228.524" font-family="Arial" font-size="9.00">not_available</text>
</g>
<!-- transition_17a3a24e36c48891e8b53e893381d9778acd9114 -->
<g id="node10" class="node"><title>transition_17a3a24e36c48891e8b53e893381d9778acd9114</title>
<polygon fill="none" stroke="#333333" points="828,-298.724 756,-298.724 756,-226.724 828,-226.724 828,-298.724"/>
<text text-anchor="middle" x="792" y="-260.524" font-family="Arial" font-size="9.00">repaired</text>
</g>
<!-- place_eeef42f87513f6dcbf91d0d8184c61215456de34&#45;&gt;transition_17a3a24e36c48891e8b53e893381d9778acd9114 -->
<g id="edge13" class="edge"><title>place_eeef42f87513f6dcbf91d0d8184c61215456de34&#45;&gt;transition_17a3a24e36c48891e8b53e893381d9778acd9114</title>
<path fill="none" stroke="#333333" d="M718.831,-240.937C729.024,-244.014 740.31,-247.421 750.871,-250.609"/>
<polygon fill="#333333" stroke="#333333" points="750.373,-252.287 755.666,-252.057 751.385,-248.936 750.373,-252.287"/>
</g>
<!-- transition_d38626a856365c923733f74c0a626686693bcb9e&#45;&gt;place_fcc537881cd1d5bcddabf48fa8809c7471176de0 -->
<g id="edge3" class="edge"><title>transition_d38626a856365c923733f74c0a626686693bcb9e&#45;&gt;place_fcc537881cd1d5bcddabf48fa8809c7471176de0</title>
<path fill="none" stroke="#333333" d="M180.002,-107.14C192.463,-116.545 206.431,-127.086 218.659,-136.315"/>
<polygon fill="#333333" stroke="#333333" points="217.689,-137.776 222.734,-139.391 219.798,-134.982 217.689,-137.776"/>
</g>
<!-- transition_63143b6f8007b98c53ca2149822777b3566f9241&#45;&gt;place_fcc537881cd1d5bcddabf48fa8809c7471176de0 -->
<g id="edge5" class="edge"><title>transition_63143b6f8007b98c53ca2149822777b3566f9241&#45;&gt;place_fcc537881cd1d5bcddabf48fa8809c7471176de0</title>
<path fill="none" stroke="#333333" d="M539.659,-234.898C528.291,-236.056 515.629,-237.152 504,-237.724 422.844,-241.715 397.976,-239.336 324,-205.724 310.983,-199.809 297.531,-191.831 285.883,-184.235"/>
<polygon fill="#333333" stroke="#333333" points="286.815,-182.753 281.678,-181.459 284.886,-185.674 286.815,-182.753"/>
</g>
<!-- transition_63143b6f8007b98c53ca2149822777b3566f9241&#45;&gt;place_eeef42f87513f6dcbf91d0d8184c61215456de34 -->
<g id="edge6" class="edge"><title>transition_63143b6f8007b98c53ca2149822777b3566f9241&#45;&gt;place_eeef42f87513f6dcbf91d0d8184c61215456de34</title>
<path fill="none" stroke="#333333" d="M612.002,-230.724C621.759,-230.724 632.439,-230.724 642.485,-230.724"/>
<polygon fill="#333333" stroke="#333333" points="642.672,-232.474 647.672,-230.724 642.672,-228.974 642.672,-232.474"/>
</g>
<!-- transition_511bd3eb8a85954f966f49773dbfef76b833160a&#45;&gt;place_45e18dad51fd9e8869897fba48fa93d118e5e404 -->
<g id="edge9" class="edge"><title>transition_511bd3eb8a85954f966f49773dbfef76b833160a&#45;&gt;place_45e18dad51fd9e8869897fba48fa93d118e5e404</title>
<path fill="none" stroke="#333333" d="M396.002,-171.29C406.356,-174.416 417.751,-177.856 428.323,-181.047"/>
<polygon fill="#333333" stroke="#333333" points="427.824,-182.725 433.116,-182.494 428.835,-179.374 427.824,-182.725"/>
</g>
<!-- transition_5bac43c0231290341c42a3cef48b789922d02b35&#45;&gt;place_c3fed1dae28105416889eb25d33d7d24c7a20450 -->
<g id="edge12" class="edge"><title>transition_5bac43c0231290341c42a3cef48b789922d02b35&#45;&gt;place_c3fed1dae28105416889eb25d33d7d24c7a20450</title>
<path fill="none" stroke="#333333" d="M612.002,-64.7235C621.759,-64.7235 632.439,-64.7235 642.485,-64.7235"/>
<polygon fill="#333333" stroke="#333333" points="642.672,-66.4736 647.672,-64.7235 642.672,-62.9736 642.672,-66.4736"/>
</g>
<!-- transition_17a3a24e36c48891e8b53e893381d9778acd9114&#45;&gt;place_fcc537881cd1d5bcddabf48fa8809c7471176de0 -->
<g id="edge14" class="edge"><title>transition_17a3a24e36c48891e8b53e893381d9778acd9114&#45;&gt;place_fcc537881cd1d5bcddabf48fa8809c7471176de0</title>
<path fill="none" stroke="#333333" d="M755.649,-271.299C713.413,-280.778 640.486,-294.724 577,-294.724 467,-294.724 467,-294.724 467,-294.724 389.713,-294.724 317.376,-231.162 279.831,-191.592"/>
<polygon fill="#333333" stroke="#333333" points="281.006,-190.287 276.307,-187.84 278.455,-192.683 281.006,-190.287"/>
</g>
</g>
</svg>
