<?xml version="1.0" encoding="UTF-8" standalone="no"?>
<!DOCTYPE svg PUBLIC "-//W3C//DTD SVG 1.1//EN"
 "http://www.w3.org/Graphics/SVG/1.1/DTD/svg11.dtd">
<!-- Generated by graphviz version 2.38.0 (20140413.2041)
 -->
<!-- Title: workflow Pages: 1 -->
<svg width="836pt" height="666pt"
 viewBox="0.00 0.00 836.00 666.00" xmlns="http://www.w3.org/2000/svg" xmlns:xlink="http://www.w3.org/1999/xlink">
<g id="graph0" class="graph" transform="scale(1 1) rotate(0) translate(4 662)">
<title>workflow</title>
<polygon fill="white" stroke="none" points="-4,4 -4,-662 832,-662 832,4 -4,4"/>
<!-- place_fcc537881cd1d5bcddabf48fa8809c7471176de0 -->
<g id="node1" class="node"><title>place_fcc537881cd1d5bcddabf48fa8809c7471176de0</title>
<ellipse fill="lightblue" stroke="#333333" cx="36" cy="-132" rx="36" ry="36"/>
<text text-anchor="middle" x="36" y="-129.8" font-family="Arial" font-size="9.00">inside</text>
</g>
<!-- transition_511bd3eb8a85954f966f49773dbfef76b833160a -->
<g id="node5" class="node"><title>transition_511bd3eb8a85954f966f49773dbfef76b833160a</title>
<polygon fill="none" stroke="#333333" points="180,-373 108,-373 108,-301 180,-301 180,-373"/>
<text text-anchor="middle" x="144" y="-334.8" font-family="Arial" font-size="9.00">rent</text>
</g>
<!-- place_fcc537881cd1d5bcddabf48fa8809c7471176de0&#45;&gt;transition_511bd3eb8a85954f966f49773dbfef76b833160a -->
<g id="edge1" class="edge"><title>place_fcc537881cd1d5bcddabf48fa8809c7471176de0&#45;&gt;transition_511bd3eb8a85954f966f49773dbfef76b833160a</title>
<path fill="none" stroke="#333333" d="M53.3302,-163.582C71.746,-199.197 101.747,-257.219 121.919,-296.23"/>
<polygon fill="#333333" stroke="#333333" points="120.477,-297.252 124.329,-300.89 123.586,-295.645 120.477,-297.252"/>
</g>
<!-- transition_b955334da39e8790cf535290ff47f5c90f74ef40 -->
<g id="node6" class="node"><title>transition_b955334da39e8790cf535290ff47f5c90f74ef40</title>
<polygon fill="none" stroke="#333333" points="180,-232 108,-232 108,-160 180,-160 180,-232"/>
<text text-anchor="middle" x="144" y="-193.8" font-family="Arial" font-size="9.00">inside_reserv</text>
</g>
<!-- place_fcc537881cd1d5bcddabf48fa8809c7471176de0&#45;&gt;transition_b955334da39e8790cf535290ff47f5c90f74ef40 -->
<g id="edge3" class="edge"><title>place_fcc537881cd1d5bcddabf48fa8809c7471176de0&#45;&gt;transition_b955334da39e8790cf535290ff47f5c90f74ef40</title>
<path fill="none" stroke="#333333" d="M69.6684,-145.437C80.3014,-151.349 92.2213,-158.456 103.31,-165.479"/>
<polygon fill="#333333" stroke="#333333" points="102.521,-167.052 107.677,-168.268 104.405,-164.102 102.521,-167.052"/>
</g>
<!-- transition_204a5d04c4b3c7c28b9a4d2b1e8a265863ddb0b4 -->
<g id="node15" class="node"><title>transition_204a5d04c4b3c7c28b9a4d2b1e8a265863ddb0b4</title>
<polygon fill="none" stroke="#333333" points="612,-100 540,-100 540,-28 612,-28 612,-100"/>
<text text-anchor="middle" x="576" y="-61.8" font-family="Arial" font-size="9.00">rm_reserv_in</text>
</g>
<!-- place_fcc537881cd1d5bcddabf48fa8809c7471176de0&#45;&gt;transition_204a5d04c4b3c7c28b9a4d2b1e8a265863ddb0b4 -->
<g id="edge28" class="edge"><title>place_fcc537881cd1d5bcddabf48fa8809c7471176de0&#45;&gt;transition_204a5d04c4b3c7c28b9a4d2b1e8a265863ddb0b4</title>
<path fill="none" stroke="#333333" d="M59.1644,-104.232C72.4692,-92.1432 90.2192,-79.1432 108,-71 167.303,-43.8407 185.774,-38 251,-38 251,-38 251,-38 361,-38 421.705,-38 491.792,-44.8817 534.749,-52.2063"/>
<polygon fill="#333333" stroke="#333333" points="534.624,-53.9609 539.851,-53.1013 535.229,-50.5136 534.624,-53.9609"/>
</g>
<!-- place_45e18dad51fd9e8869897fba48fa93d118e5e404 -->
<g id="node2" class="node"><title>place_45e18dad51fd9e8869897fba48fa93d118e5e404</title>
<ellipse fill="none" stroke="#333333" cx="252" cy="-356" rx="36" ry="36"/>
<text text-anchor="middle" x="252" y="-353.8" font-family="Arial" font-size="9.00">outside</text>
</g>
<!-- transition_6d2479d1ab88667b98ca6024846fed6207bb10f2 -->
<g id="node7" class="node"><title>transition_6d2479d1ab88667b98ca6024846fed6207bb10f2</title>
<polygon fill="none" stroke="#333333" points="396,-360 324,-360 324,-288 396,-288 396,-360"/>
<text text-anchor="middle" x="360" y="-321.8" font-family="Arial" font-size="9.00">rent_reserv</text>
</g>
<!-- place_45e18dad51fd9e8869897fba48fa93d118e5e404&#45;&gt;transition_6d2479d1ab88667b98ca6024846fed6207bb10f2 -->
<g id="edge6" class="edge"><title>place_45e18dad51fd9e8869897fba48fa93d118e5e404&#45;&gt;transition_6d2479d1ab88667b98ca6024846fed6207bb10f2</title>
<path fill="none" stroke="#333333" d="M284.517,-340.255C295.207,-336.482 307.301,-332.715 318.586,-329.622"/>
<polygon fill="#333333" stroke="#333333" points="319.33,-331.235 323.707,-328.251 318.424,-327.854 319.33,-331.235"/>
</g>
<!-- transition_63143b6f8007b98c53ca2149822777b3566f9241 -->
<g id="node8" class="node"><title>transition_63143b6f8007b98c53ca2149822777b3566f9241</title>
<polygon fill="none" stroke="#333333" points="396,-232 324,-232 324,-160 396,-160 396,-232"/>
<text text-anchor="middle" x="360" y="-193.8" font-family="Arial" font-size="9.00">return</text>
</g>
<!-- place_45e18dad51fd9e8869897fba48fa93d118e5e404&#45;&gt;transition_63143b6f8007b98c53ca2149822777b3566f9241 -->
<g id="edge9" class="edge"><title>place_45e18dad51fd9e8869897fba48fa93d118e5e404&#45;&gt;transition_63143b6f8007b98c53ca2149822777b3566f9241</title>
<path fill="none" stroke="#333333" d="M271.985,-325.922C286.115,-303.7 305.99,-272.785 324,-246 326.073,-242.917 328.235,-239.74 330.422,-236.554"/>
<polygon fill="#333333" stroke="#333333" points="332.019,-237.321 333.414,-232.21 329.137,-235.335 332.019,-237.321"/>
</g>
<!-- transition_ba0183f387c29c2eef3c45a3c6d37458041d349a -->
<g id="node9" class="node"><title>transition_ba0183f387c29c2eef3c45a3c6d37458041d349a</title>
<polygon fill="none" stroke="#333333" points="612,-550 540,-550 540,-478 612,-478 612,-550"/>
<text text-anchor="middle" x="576" y="-511.8" font-family="Arial" font-size="9.00">return_reserv</text>
</g>
<!-- place_45e18dad51fd9e8869897fba48fa93d118e5e404&#45;&gt;transition_ba0183f387c29c2eef3c45a3c6d37458041d349a -->
<g id="edge11" class="edge"><title>place_45e18dad51fd9e8869897fba48fa93d118e5e404&#45;&gt;transition_ba0183f387c29c2eef3c45a3c6d37458041d349a</title>
<path fill="none" stroke="#333333" d="M277.981,-381.179C290.897,-393.19 307.406,-407.069 324,-417 393.319,-458.484 483.515,-488.183 534.756,-503.09"/>
<polygon fill="#333333" stroke="#333333" points="534.301,-504.781 539.591,-504.487 535.273,-501.418 534.301,-504.781"/>
</g>
<!-- transition_64916df45cb60700aa70869c92c0cdae8cc044f9 -->
<g id="node10" class="node"><title>transition_64916df45cb60700aa70869c92c0cdae8cc044f9</title>
<polygon fill="none" stroke="#333333" points="504,-658 432,-658 432,-586 504,-586 504,-658"/>
<text text-anchor="middle" x="468" y="-619.8" font-family="Arial" font-size="9.00">return_ko</text>
</g>
<!-- place_45e18dad51fd9e8869897fba48fa93d118e5e404&#45;&gt;transition_64916df45cb60700aa70869c92c0cdae8cc044f9 -->
<g id="edge15" class="edge"><title>place_45e18dad51fd9e8869897fba48fa93d118e5e404&#45;&gt;transition_64916df45cb60700aa70869c92c0cdae8cc044f9</title>
<path fill="none" stroke="#333333" d="M265.714,-389.452C277.963,-419.18 298.387,-462.925 324,-496 353.859,-534.558 396.734,-570.481 427.742,-594.024"/>
<polygon fill="#333333" stroke="#333333" points="426.799,-595.505 431.844,-597.119 428.907,-592.711 426.799,-595.505"/>
</g>
<!-- transition_34cc435274f0a4cbcb02210f7b094dc31ae3347e -->
<g id="node11" class="node"><title>transition_34cc435274f0a4cbcb02210f7b094dc31ae3347e</title>
<polygon fill="none" stroke="#333333" points="612,-370 540,-370 540,-298 612,-298 612,-370"/>
<text text-anchor="middle" x="576" y="-331.8" font-family="Arial" font-size="9.00">return_res_ko</text>
</g>
<!-- place_45e18dad51fd9e8869897fba48fa93d118e5e404&#45;&gt;transition_34cc435274f0a4cbcb02210f7b094dc31ae3347e -->
<g id="edge17" class="edge"><title>place_45e18dad51fd9e8869897fba48fa93d118e5e404&#45;&gt;transition_34cc435274f0a4cbcb02210f7b094dc31ae3347e</title>
<path fill="none" stroke="#333333" d="M287.227,-363.714C336.041,-373.385 428.145,-386.681 504,-369 514.467,-366.56 525.164,-362.345 534.975,-357.667"/>
<polygon fill="#333333" stroke="#333333" points="535.998,-359.114 539.715,-355.339 534.455,-355.972 535.998,-359.114"/>
</g>
<!-- transition_dab4cfbed01e8b738e2e10a5b83ef03d3f1753ca -->
<g id="node12" class="node"><title>transition_dab4cfbed01e8b738e2e10a5b83ef03d3f1753ca</title>
<polygon fill="none" stroke="#333333" points="612,-280 540,-280 540,-208 612,-208 612,-280"/>
<text text-anchor="middle" x="576" y="-241.8" font-family="Arial" font-size="9.00">ret_no_res_ins</text>
</g>
<!-- place_45e18dad51fd9e8869897fba48fa93d118e5e404&#45;&gt;transition_dab4cfbed01e8b738e2e10a5b83ef03d3f1753ca -->
<g id="edge20" class="edge"><title>place_45e18dad51fd9e8869897fba48fa93d118e5e404&#45;&gt;transition_dab4cfbed01e8b738e2e10a5b83ef03d3f1753ca</title>
<path fill="none" stroke="#333333" d="M272.448,-326.369C285.075,-309.648 303.057,-289.963 324,-279 391.647,-243.59 482.923,-240.105 534.706,-241.533"/>
<polygon fill="#333333" stroke="#333333" points="534.846,-243.288 539.899,-241.696 534.956,-239.79 534.846,-243.288"/>
</g>
<!-- transition_47a52ee034d9a3981e9e79cc2c7519df4f0b8d4b -->
<g id="node14" class="node"><title>transition_47a52ee034d9a3981e9e79cc2c7519df4f0b8d4b</title>
<polygon fill="none" stroke="#333333" points="612,-460 540,-460 540,-388 612,-388 612,-460"/>
<text text-anchor="middle" x="576" y="-421.8" font-family="Arial" font-size="9.00">rm_reserv_out</text>
</g>
<!-- place_45e18dad51fd9e8869897fba48fa93d118e5e404&#45;&gt;transition_47a52ee034d9a3981e9e79cc2c7519df4f0b8d4b -->
<g id="edge25" class="edge"><title>place_45e18dad51fd9e8869897fba48fa93d118e5e404&#45;&gt;transition_47a52ee034d9a3981e9e79cc2c7519df4f0b8d4b</title>
<path fill="none" stroke="#333333" d="M286.989,-364.499C298.5,-369.196 311.587,-374.444 324,-378 396.665,-398.818 484.697,-408.352 534.842,-415.086"/>
<polygon fill="#333333" stroke="#333333" points="534.682,-416.83 539.872,-415.77 535.154,-413.362 534.682,-416.83"/>
</g>
<!-- place_c3fed1dae28105416889eb25d33d7d24c7a20450 -->
<g id="node3" class="node"><title>place_c3fed1dae28105416889eb25d33d7d24c7a20450</title>
<ellipse fill="none" stroke="#333333" cx="468" cy="-324" rx="36" ry="36"/>
<text text-anchor="middle" x="468" y="-321.8" font-family="Arial" font-size="9.00">reserved</text>
</g>
<!-- place_c3fed1dae28105416889eb25d33d7d24c7a20450&#45;&gt;transition_ba0183f387c29c2eef3c45a3c6d37458041d349a -->
<g id="edge12" class="edge"><title>place_c3fed1dae28105416889eb25d33d7d24c7a20450&#45;&gt;transition_ba0183f387c29c2eef3c45a3c6d37458041d349a</title>
<path fill="none" stroke="#333333" d="M485.465,-355.626C498.692,-383.876 518.548,-425.645 540,-460 542.85,-464.564 546.067,-469.218 549.368,-473.805"/>
<polygon fill="#333333" stroke="#333333" points="548.058,-474.98 552.414,-477.994 550.889,-472.921 548.058,-474.98"/>
</g>
<!-- place_c3fed1dae28105416889eb25d33d7d24c7a20450&#45;&gt;transition_34cc435274f0a4cbcb02210f7b094dc31ae3347e -->
<g id="edge18" class="edge"><title>place_c3fed1dae28105416889eb25d33d7d24c7a20450&#45;&gt;transition_34cc435274f0a4cbcb02210f7b094dc31ae3347e</title>
<path fill="none" stroke="#333333" d="M504.002,-327.302C513.759,-328.223 524.439,-329.23 534.485,-330.178"/>
<polygon fill="#333333" stroke="#333333" points="534.53,-331.94 539.672,-330.667 534.859,-328.455 534.53,-331.94"/>
</g>
<!-- place_c3fed1dae28105416889eb25d33d7d24c7a20450&#45;&gt;transition_dab4cfbed01e8b738e2e10a5b83ef03d3f1753ca -->
<g id="edge21" class="edge"><title>place_c3fed1dae28105416889eb25d33d7d24c7a20450&#45;&gt;transition_dab4cfbed01e8b738e2e10a5b83ef03d3f1753ca</title>
<path fill="none" stroke="#333333" d="M497.128,-302.772C508.92,-293.872 522.837,-283.368 535.62,-273.721"/>
<polygon fill="#333333" stroke="#333333" points="536.97,-274.894 539.907,-270.485 534.862,-272.1 536.97,-274.894"/>
</g>
<!-- place_c3fed1dae28105416889eb25d33d7d24c7a20450&#45;&gt;transition_47a52ee034d9a3981e9e79cc2c7519df4f0b8d4b -->
<g id="edge26" class="edge"><title>place_c3fed1dae28105416889eb25d33d7d24c7a20450&#45;&gt;transition_47a52ee034d9a3981e9e79cc2c7519df4f0b8d4b</title>
<path fill="none" stroke="#333333" d="M494.66,-348.207C507.093,-359.937 522.291,-374.274 536.108,-387.31"/>
<polygon fill="#333333" stroke="#333333" points="535.128,-388.791 539.966,-390.949 537.53,-386.245 535.128,-388.791"/>
</g>
<!-- place_c3fed1dae28105416889eb25d33d7d24c7a20450&#45;&gt;transition_204a5d04c4b3c7c28b9a4d2b1e8a265863ddb0b4 -->
<g id="edge29" class="edge"><title>place_c3fed1dae28105416889eb25d33d7d24c7a20450&#45;&gt;transition_204a5d04c4b3c7c28b9a4d2b1e8a265863ddb0b4</title>
<path fill="none" stroke="#333333" d="M482.533,-290.807C501.835,-243.461 537.251,-156.592 558.204,-105.197"/>
<polygon fill="#333333" stroke="#333333" points="559.919,-105.627 560.186,-100.336 556.678,-104.306 559.919,-105.627"/>
</g>
<!-- place_eeef42f87513f6dcbf91d0d8184c61215456de34 -->
<g id="node4" class="node"><title>place_eeef42f87513f6dcbf91d0d8184c61215456de34</title>
<ellipse fill="none" stroke="#333333" cx="684" cy="-334" rx="36" ry="36"/>
<text text-anchor="middle" x="684" y="-331.8" font-family="Arial" font-size="9.00">not_available</text>
</g>
<!-- transition_17a3a24e36c48891e8b53e893381d9778acd9114 -->
<g id="node13" class="node"><title>transition_17a3a24e36c48891e8b53e893381d9778acd9114</title>
<polygon fill="none" stroke="#333333" points="828,-203 756,-203 756,-131 828,-131 828,-203"/>
<text text-anchor="middle" x="792" y="-164.8" font-family="Arial" font-size="9.00">repaired</text>
</g>
<!-- place_eeef42f87513f6dcbf91d0d8184c61215456de34&#45;&gt;transition_17a3a24e36c48891e8b53e893381d9778acd9114 -->
<g id="edge23" class="edge"><title>place_eeef42f87513f6dcbf91d0d8184c61215456de34&#45;&gt;transition_17a3a24e36c48891e8b53e893381d9778acd9114</title>
<path fill="none" stroke="#333333" d="M704.196,-303.758C721.312,-276.792 746.501,-237.107 765.342,-207.424"/>
<polygon fill="#333333" stroke="#333333" points="766.872,-208.279 768.074,-203.12 763.917,-206.404 766.872,-208.279"/>
</g>
<!-- transition_511bd3eb8a85954f966f49773dbfef76b833160a&#45;&gt;place_45e18dad51fd9e8869897fba48fa93d118e5e404 -->
<g id="edge2" class="edge"><title>transition_511bd3eb8a85954f966f49773dbfef76b833160a&#45;&gt;place_45e18dad51fd9e8869897fba48fa93d118e5e404</title>
<path fill="none" stroke="#333333" d="M180.002,-343.274C190.056,-345.076 201.09,-347.054 211.4,-348.902"/>
<polygon fill="#333333" stroke="#333333" points="211.166,-350.638 216.396,-349.797 211.783,-347.193 211.166,-350.638"/>
</g>
<!-- transition_b955334da39e8790cf535290ff47f5c90f74ef40&#45;&gt;place_fcc537881cd1d5bcddabf48fa8809c7471176de0 -->
<g id="edge4" class="edge"><title>transition_b955334da39e8790cf535290ff47f5c90f74ef40&#45;&gt;place_fcc537881cd1d5bcddabf48fa8809c7471176de0</title>
<path fill="none" stroke="#333333" d="M107.786,-181.139C95.174,-174.038 81.0415,-165.453 68.7405,-157.406"/>
<polygon fill="#333333" stroke="#333333" points="69.4339,-155.767 64.2976,-154.47 67.504,-158.687 69.4339,-155.767"/>
</g>
<!-- transition_b955334da39e8790cf535290ff47f5c90f74ef40&#45;&gt;place_c3fed1dae28105416889eb25d33d7d24c7a20450 -->
<g id="edge5" class="edge"><title>transition_b955334da39e8790cf535290ff47f5c90f74ef40&#45;&gt;place_c3fed1dae28105416889eb25d33d7d24c7a20450</title>
<path fill="none" stroke="#333333" d="M180.299,-174.954C232.071,-147.121 329.63,-106.497 396,-151 439.702,-180.303 456.526,-241.841 462.989,-283.054"/>
<polygon fill="#333333" stroke="#333333" points="461.292,-283.54 463.763,-288.227 464.754,-283.023 461.292,-283.54"/>
</g>
<!-- transition_6d2479d1ab88667b98ca6024846fed6207bb10f2&#45;&gt;place_45e18dad51fd9e8869897fba48fa93d118e5e404 -->
<g id="edge7" class="edge"><title>transition_6d2479d1ab88667b98ca6024846fed6207bb10f2&#45;&gt;place_45e18dad51fd9e8869897fba48fa93d118e5e404</title>
<path fill="none" stroke="#333333" d="M323.672,-341.07C313.806,-344.448 303.016,-347.758 292.904,-350.517"/>
<polygon fill="#333333" stroke="#333333" points="292.382,-348.845 288.002,-351.825 293.284,-352.227 292.382,-348.845"/>
</g>
<!-- transition_6d2479d1ab88667b98ca6024846fed6207bb10f2&#45;&gt;place_c3fed1dae28105416889eb25d33d7d24c7a20450 -->
<g id="edge8" class="edge"><title>transition_6d2479d1ab88667b98ca6024846fed6207bb10f2&#45;&gt;place_c3fed1dae28105416889eb25d33d7d24c7a20450</title>
<path fill="none" stroke="#333333" d="M396.002,-324C405.759,-324 416.439,-324 426.485,-324"/>
<polygon fill="#333333" stroke="#333333" points="426.672,-325.75 431.672,-324 426.672,-322.25 426.672,-325.75"/>
</g>
<!-- transition_63143b6f8007b98c53ca2149822777b3566f9241&#45;&gt;place_fcc537881cd1d5bcddabf48fa8809c7471176de0 -->
<g id="edge10" class="edge"><title>transition_63143b6f8007b98c53ca2149822777b3566f9241&#45;&gt;place_fcc537881cd1d5bcddabf48fa8809c7471176de0</title>
<path fill="none" stroke="#333333" d="M323.943,-185.923C288.046,-175.905 230.512,-160.672 180,-151 145.497,-144.393 105.872,-139.322 77.0969,-136.088"/>
<polygon fill="#333333" stroke="#333333" points="77.0166,-134.318 71.8539,-135.505 76.63,-137.797 77.0166,-134.318"/>
</g>
<!-- transition_ba0183f387c29c2eef3c45a3c6d37458041d349a&#45;&gt;place_fcc537881cd1d5bcddabf48fa8809c7471176de0 -->
<g id="edge13" class="edge"><title>transition_ba0183f387c29c2eef3c45a3c6d37458041d349a&#45;&gt;place_fcc537881cd1d5bcddabf48fa8809c7471176de0</title>
<path fill="none" stroke="#333333" d="M539.862,-525.791C497.832,-538.825 425.102,-558 361,-558 251,-558 251,-558 251,-558 79.874,-558 45.5759,-280.118 38.7129,-173.219"/>
<polygon fill="#333333" stroke="#333333" points="40.4427,-172.836 38.3882,-167.953 36.9493,-173.052 40.4427,-172.836"/>
</g>
<!-- transition_ba0183f387c29c2eef3c45a3c6d37458041d349a&#45;&gt;place_c3fed1dae28105416889eb25d33d7d24c7a20450 -->
<g id="edge14" class="edge"><title>transition_ba0183f387c29c2eef3c45a3c6d37458041d349a&#45;&gt;place_c3fed1dae28105416889eb25d33d7d24c7a20450</title>
<path fill="none" stroke="#333333" d="M539.714,-477.541C516.639,-440.492 495.439,-394.943 482.391,-362.965"/>
<polygon fill="#333333" stroke="#333333" points="483.862,-361.934 480.367,-357.953 480.616,-363.245 483.862,-361.934"/>
</g>
<!-- transition_64916df45cb60700aa70869c92c0cdae8cc044f9&#45;&gt;place_eeef42f87513f6dcbf91d0d8184c61215456de34 -->
<g id="edge16" class="edge"><title>transition_64916df45cb60700aa70869c92c0cdae8cc044f9&#45;&gt;place_eeef42f87513f6dcbf91d0d8184c61215456de34</title>
<path fill="none" stroke="#333333" d="M504.173,-615.175C536.53,-607.121 583.663,-590.617 612,-559 658.556,-507.055 674.591,-424.654 680.109,-375.303"/>
<polygon fill="#333333" stroke="#333333" points="681.88,-375.201 680.671,-370.043 678.4,-374.829 681.88,-375.201"/>
</g>
<!-- transition_34cc435274f0a4cbcb02210f7b094dc31ae3347e&#45;&gt;place_eeef42f87513f6dcbf91d0d8184c61215456de34 -->
<g id="edge19" class="edge"><title>transition_34cc435274f0a4cbcb02210f7b094dc31ae3347e&#45;&gt;place_eeef42f87513f6dcbf91d0d8184c61215456de34</title>
<path fill="none" stroke="#333333" d="M612.002,-334C621.759,-334 632.439,-334 642.485,-334"/>
<polygon fill="#333333" stroke="#333333" points="642.672,-335.75 647.672,-334 642.672,-332.25 642.672,-335.75"/>
</g>
<!-- transition_dab4cfbed01e8b738e2e10a5b83ef03d3f1753ca&#45;&gt;place_fcc537881cd1d5bcddabf48fa8809c7471176de0 -->
<g id="edge22" class="edge"><title>transition_dab4cfbed01e8b738e2e10a5b83ef03d3f1753ca&#45;&gt;place_fcc537881cd1d5bcddabf48fa8809c7471176de0</title>
<path fill="none" stroke="#333333" d="M547.496,-207.689C510.437,-163.296 439.945,-94 361,-94 251,-94 251,-94 251,-94 188.995,-94 118.42,-109.656 75.8233,-120.87"/>
<polygon fill="#333333" stroke="#333333" points="75.1518,-119.238 70.7697,-122.214 76.0515,-122.62 75.1518,-119.238"/>
</g>
<!-- transition_17a3a24e36c48891e8b53e893381d9778acd9114&#45;&gt;place_fcc537881cd1d5bcddabf48fa8809c7471176de0 -->
<g id="edge24" class="edge"><title>transition_17a3a24e36c48891e8b53e893381d9778acd9114&#45;&gt;place_fcc537881cd1d5bcddabf48fa8809c7471176de0</title>
<path fill="none" stroke="#333333" d="M767.46,-130.763C732.372,-81.6474 661.357,-0 577,-0 251,-0 251,-0 251,-0 183.96,-4.10504e-15 163.465,-10.3422 108,-48 88.7761,-61.0521 71.7856,-80.6756 59.2489,-97.674"/>
<polygon fill="#333333" stroke="#333333" points="57.6784,-96.8586 56.1589,-101.933 60.5115,-98.9139 57.6784,-96.8586"/>
</g>
<!-- transition_47a52ee034d9a3981e9e79cc2c7519df4f0b8d4b&#45;&gt;place_45e18dad51fd9e8869897fba48fa93d118e5e404 -->
<g id="edge27" class="edge"><title>transition_47a52ee034d9a3981e9e79cc2c7519df4f0b8d4b&#45;&gt;place_45e18dad51fd9e8869897fba48fa93d118e5e404</title>
<path fill="none" stroke="#333333" d="M539.872,-427.77C490.762,-426.993 399.16,-417.532 324,-396 310.987,-392.272 297.233,-386.684 285.331,-380.728"/>
<polygon fill="#333333" stroke="#333333" points="285.942,-379.074 280.695,-378.34 284.339,-382.186 285.942,-379.074"/>
</g>
<!-- transition_204a5d04c4b3c7c28b9a4d2b1e8a265863ddb0b4&#45;&gt;place_fcc537881cd1d5bcddabf48fa8809c7471176de0 -->
<g id="edge30" class="edge"><title>transition_204a5d04c4b3c7c28b9a4d2b1e8a265863ddb0b4&#45;&gt;place_fcc537881cd1d5bcddabf48fa8809c7471176de0</title>
<path fill="none" stroke="#333333" d="M539.851,-65.8766C497.506,-63.4526 424.172,-56 361,-56 251,-56 251,-56 251,-56 185.774,-56 167.303,-61.8407 108,-89 95.3687,-94.7848 82.753,-103.021 71.7354,-110.833"/>
<polygon fill="#333333" stroke="#333333" points="70.4801,-109.58 67.436,-113.915 72.5193,-112.424 70.4801,-109.58"/>
</g>
</g>
</svg>
